<?xml version="1.0" encoding="UTF-8"?>
<svg width="6px" height="8px" viewBox="0 0 6 8" version="1.1" xmlns="http://www.w3.org/2000/svg" xmlns:xlink="http://www.w3.org/1999/xlink">
    <defs></defs>
    <g id="Symbols" stroke="none" stroke-width="1" fill="none" fill-rule="evenodd">
        <g id="Icons/Small/Cadeado" fill="#0861FF">
            <g>
                <path d="M1,7 L5,7 L5,4 L1,4 L1,7 Z M2,2 C2,1.448 2.448,1 3,1 C3.552,1 4,1.448 4,2 L4,3 L2,3 L2,2 Z M5.5,3 L5,3 L5,2 C5,0.8955 4.1045,0 3,0 C1.8955,0 1,0.8955 1,2 L1,3 L0.5,3 C0.2235,3 0,3.2235 0,3.5 L0,7.5 C0,7.7765 0.2235,8 0.5,8 L5.5,8 C5.7765,8 6,7.7765 6,7.5 L6,3.5 C6,3.2235 5.7765,3 5.5,3 L5.5,3 Z" id="Fill-1"></path>
                <path d="M3,6 C3.2765,6 3.5,5.7765 3.5,5.5 C3.5,5.2235 3.2765,5 3,5 C2.7235,5 2.5,5.2235 2.5,5.5 C2.5,5.7765 2.7235,6 3,6" id="Fill-3"></path>
            </g>
        </g>
    </g>
</svg>