<?xml version="1.0" encoding="UTF-8"?>
<svg width="12px" height="12px" viewBox="0 0 12 12" version="1.1" xmlns="http://www.w3.org/2000/svg" xmlns:xlink="http://www.w3.org/1999/xlink">
    <defs></defs>
    <g id="Symbols" stroke="none" stroke-width="1" fill="none" fill-rule="evenodd">
        <g id="Icons/Small/download" fill="#0861FF">
            <g>
                <path d="M10.5,6 L8.25,6 C7.83525,6 7.5,6.33525 7.5,6.75 L7.5,7.5 L4.5,7.5 L4.5,6.75 C4.5,6.33525 4.16475,6 3.75,6 L1.5,6 L1.5,1.5 L10.5,1.5 L10.5,6 Z M10.5,10.5 L1.5,10.5 L1.5,7.5 L3,7.5 L3,8.25 C3,8.66475 3.33525,9 3.75,9 L8.25,9 C8.66475,9 9,8.66475 9,8.25 L9,7.5 L10.5,7.5 L10.5,10.5 Z M11.25,0 L0.75,0 C0.33525,0 0,0.33525 0,0.75 L0,11.25 C0,11.66475 0.33525,12 0.75,12 L11.25,12 C11.66475,12 12,11.66475 12,11.25 L12,0.75 C12,0.33525 11.66475,0 11.25,0 L11.25,0 Z" id="Fill-1"></path>
                <path d="M3.75,4.5 L8.25,4.5 C8.66475,4.5 9,4.16475 9,3.75 C9,3.33525 8.66475,3 8.25,3 L3.75,3 C3.33525,3 3,3.33525 3,3.75 C3,4.16475 3.33525,4.5 3.75,4.5" id="Fill-3"></path>
            </g>
        </g>
    </g>
</svg>