<?xml version="1.0" encoding="UTF-8"?>
<svg width="16px" height="16px" viewBox="0 0 16 16" version="1.1" xmlns="http://www.w3.org/2000/svg" xmlns:xlink="http://www.w3.org/1999/xlink">
    <defs></defs>
    <g id="Symbols" stroke="none" stroke-width="1" fill="none" fill-rule="evenodd">
        <g id="Icons/Cancelar" fill="#E7233C">
            <path d="M13.7448802,12.3133267 C13.7268588,12.2943341 13.7108398,12.2783403 13.6918172,12.2603473 L9.42575103,8.00099961 L13.6918172,3.73965271 C13.7108398,3.72165969 13.7268588,3.7056659 13.7448802,3.68667326 L15.7162213,1.7184368 C16.1076862,1.32858803 16.0876624,0.71482613 15.6961975,0.324977364 C15.3047326,-0.0658710146 14.7070228,-0.100857442 14.3155579,0.289990936 L8.00005795,6.59454522 L1.66052946,0.266000243 C1.26806338,-0.124848136 0.6953833,-0.067870239 0.302917227,0.324977364 C-0.0875464669,0.71482613 -0.107570246,1.32758842 0.283894637,1.7184368 L6.57436487,8.00099961 L0.283894637,14.2815632 C-0.107570246,14.6724116 -0.0875464669,15.2851739 0.302917227,15.6750226 C0.6953833,16.0678702 1.26806338,16.1248481 1.66052946,15.7339998 L8.00005795,9.40545478 L14.3155579,15.7100091 C14.7070228,16.1008574 15.3047326,16.065871 15.6961975,15.6750226 C16.0876624,15.2851739 16.1076862,14.671412 15.7162213,14.2815632 L13.7448802,12.3133267 Z" id="Fill-1"></path>
        </g>
    </g>
</svg>