<?xml version="1.0" encoding="UTF-8"?>
<svg width="24px" height="21px" viewBox="0 0 24 21" version="1.1" xmlns="http://www.w3.org/2000/svg" xmlns:xlink="http://www.w3.org/1999/xlink">
    <defs></defs>
    <g id="Symbols" stroke="none" stroke-width="1" fill="none" fill-rule="evenodd">
        <g id="Icons/Exportar" fill="#001B4B">
            <g id="Group-4">
                <path d="M22.5,18.75 C22.5,19.16475 22.16475,19.5 21.75,19.5 L2.25,19.5 C1.83525,19.5 1.5,19.16475 1.5,18.75 L1.5,5.25 C1.5,4.83525 1.83525,4.5 2.25,4.5 L4.5,4.5 L4.5,5.25 C4.5,5.66475 4.83525,6 5.25,6 L8.25,6 C8.66475,6 9,5.66475 9,5.25 L9,4.5 L15,4.5 L15,5.25 C15,5.66475 15.33525,6 15.75,6 L18.75,6 C19.16475,6 19.5,5.66475 19.5,5.25 L19.5,4.5 L21.75,4.5 C22.16475,4.5 22.5,4.83525 22.5,5.25 L22.5,18.75 Z M6,4.5 L7.5,4.5 L7.5,1.5 L6,1.5 L6,4.5 Z M16.5,4.5 L18,4.5 L18,1.5 L16.5,1.5 L16.5,4.5 Z M22.5,3 L19.5,3 L19.5,0.75 C19.5,0.33525 19.16475,0 18.75,0 L15.75,0 C15.33525,0 15,0.33525 15,0.75 L15,3 L9,3 L9,0.75 C9,0.33525 8.66475,0 8.25,0 L5.25,0 C4.83525,0 4.5,0.33525 4.5,0.75 L4.5,3 L1.5,3 C0.67125,3 0,3.67125 0,4.5 L0,19.5 C0,20.32875 0.67125,21 1.5,21 L22.5,21 C23.32875,21 24,20.32875 24,19.5 L24,4.5 C24,3.67125 23.32875,3 22.5,3 L22.5,3 Z" id="Fill-1"></path>
                <path d="M15.75,11.25 L17.25,11.25 C17.66475,11.25 18,10.91475 18,10.5 C18,10.08525 17.66475,9.75 17.25,9.75 L15.75,9.75 C15.33525,9.75 15,10.08525 15,10.5 C15,10.91475 15.33525,11.25 15.75,11.25" id="Fill-3"></path>
                <path d="M18.75,12.75 L15.75,12.75 C15.33525,12.75 15,13.08525 15,13.5 C15,13.91475 15.33525,14.25 15.75,14.25 L18.75,14.25 C19.16475,14.25 19.5,13.91475 19.5,13.5 C19.5,13.08525 19.16475,12.75 18.75,12.75" id="Fill-5"></path>
                <path d="M8.25,9 C9.078,9 9.75,9.672 9.75,10.5 C9.75,11.328 9.078,12 8.25,12 C7.422,12 6.75,11.328 6.75,10.5 C6.75,9.672 7.422,9 8.25,9 M9.927,12.987 C10.72575,12.4485 11.25,11.53575 11.25,10.5 C11.25,8.84325 9.90675,7.5 8.25,7.5 C6.59325,7.5 5.25,8.84325 5.25,10.5 C5.25,11.53575 5.77425,12.4485 6.573,12.987 C4.4415,13.6395 3.81975,15.42075 3.789,15.513 C3.65775,15.906 3.87,16.3305 4.263,16.461 C4.659,16.59225 5.07975,16.38 5.211,15.987 C5.217,15.96975 5.8185,14.25 8.25,14.25 C10.641,14.25 11.26575,15.9225 11.289,15.987 C11.39325,16.30125 11.68575,16.5 12,16.5 C12.078,16.5 12.15825,16.48725 12.237,16.461 C12.63,16.3305 12.84225,15.906 12.711,15.513 C12.68025,15.42075 12.0585,13.6395 9.927,12.987" id="Fill-7"></path>
            </g>
        </g>
    </g>
</svg>