<?xml version="1.0" encoding="UTF-8"?>
<svg width="24px" height="24px" viewBox="0 0 24 24" version="1.1" xmlns="http://www.w3.org/2000/svg" xmlns:xlink="http://www.w3.org/1999/xlink">
    <defs></defs>
    <g id="Symbols" stroke="none" stroke-width="1" fill="none" fill-rule="evenodd">
        <g id="Icons/Imprimir" fill="#001B4B">
            <g id="Group-4">
                <path d="M22.5,17.25 C22.5,17.66475 22.16475,18 21.75,18 L19.5,18 L19.5,12.75 C19.5,12.33525 19.16475,12 18.75,12 L5.25,12 C4.83525,12 4.5,12.33525 4.5,12.75 L4.5,18 L2.25,18 C1.83525,18 1.5,17.66475 1.5,17.25 L1.5,6.75 C1.5,6.33525 1.83525,6 2.25,6 L21.75,6 C22.16475,6 22.5,6.33525 22.5,6.75 L22.5,17.25 Z M6,22.5 L18,22.5 L18,13.5 L6,13.5 L6,22.5 Z M6,4.5 L18,4.5 L18,1.5 L6,1.5 L6,4.5 Z M22.5,4.5 L19.5,4.5 L19.5,0.75 C19.5,0.33525 19.16475,0 18.75,0 L5.25,0 C4.83525,0 4.5,0.33525 4.5,0.75 L4.5,4.5 L1.5,4.5 C0.67125,4.5 0,5.17125 0,6 L0,18 C0,18.82875 0.67125,19.5 1.5,19.5 L4.5,19.5 L4.5,23.25 C4.5,23.66475 4.83525,24 5.25,24 L18.75,24 C19.16475,24 19.5,23.66475 19.5,23.25 L19.5,19.5 L22.5,19.5 C23.32875,19.5 24,18.82875 24,18 L24,6 C24,5.17125 23.32875,4.5 22.5,4.5 L22.5,4.5 Z" id="Fill-1"></path>
                <path d="M20.25,7.5 C19.83525,7.5 19.5,7.83525 19.5,8.25 C19.5,8.66475 19.83525,9 20.25,9 C20.66475,9 21,8.66475 21,8.25 C21,7.83525 20.66475,7.5 20.25,7.5" id="Fill-3"></path>
                <path d="M17.25,7.5 C16.83525,7.5 16.5,7.83525 16.5,8.25 C16.5,8.66475 16.83525,9 17.25,9 C17.66475,9 18,8.66475 18,8.25 C18,7.83525 17.66475,7.5 17.25,7.5" id="Fill-5"></path>
            </g>
        </g>
    </g>
</svg>