<?xml version="1.0" encoding="UTF-8"?>
<svg width="16px" height="16px" viewBox="0 0 16 16" version="1.1" xmlns="http://www.w3.org/2000/svg" xmlns:xlink="http://www.w3.org/1999/xlink">
    <defs></defs>
    <g id="Symbols" stroke="none" stroke-width="1" fill="none" fill-rule="evenodd">
        <g id="Icons/Small/Calendário" fill="#0861FF">
            <g id="Group-2">
                <path d="M15,4 L1,4 L1,2.5 C1,2.2235 1.2235,2 1.5,2 L3.5,2 L3.5,2.5 C3.5,2.7765 3.7235,3 4,3 C4.2765,3 4.5,2.7765 4.5,2.5 L4.5,2 L11.5,2 L11.5,2.5 C11.5,2.7765 11.7235,3 12,3 C12.2765,3 12.5,2.7765 12.5,2.5 L12.5,2 L14.5,2 C14.7765,2 15,2.2235 15,2.5 L15,4 Z M15,14.5 C15,14.7765 14.7765,15 14.5,15 L1.5,15 C1.2235,15 1,14.7765 1,14.5 L1,5 L15,5 L15,14.5 Z M15,1 L12.5,1 L12.5,0.5 C12.5,0.2235 12.2765,0 12,0 C11.7235,0 11.5,0.2235 11.5,0.5 L11.5,1 L4.5,1 L4.5,0.5 C4.5,0.2235 4.2765,0 4,0 C3.7235,0 3.5,0.2235 3.5,0.5 L3.5,1 L1,1 C0.4475,1 0,1.4475 0,2 L0,15 C0,15.5525 0.4475,16 1,16 L15,16 C15.5525,16 16,15.5525 16,15 L16,2 C16,1.4475 15.5525,1 15,1 L15,1 Z" id="Fill-1"></path>
                <path d="M4,8 L5,8 C5.2765,8 5.5,7.7765 5.5,7.5 C5.5,7.2235 5.2765,7 5,7 L4,7 C3.7235,7 3.5,7.2235 3.5,7.5 C3.5,7.7765 3.7235,8 4,8" id="Fill-3"></path>
                <path d="M11,8 L12,8 C12.2765,8 12.5,7.7765 12.5,7.5 C12.5,7.2235 12.2765,7 12,7 L11,7 C10.7235,7 10.5,7.2235 10.5,7.5 C10.5,7.7765 10.7235,8 11,8" id="Fill-5"></path>
                <path d="M7.5,8 L8.5,8 C8.7765,8 9,7.7765 9,7.5 C9,7.2235 8.7765,7 8.5,7 L7.5,7 C7.2235,7 7,7.2235 7,7.5 C7,7.7765 7.2235,8 7.5,8" id="Fill-7"></path>
                <path d="M4,10.5 L5,10.5 C5.2765,10.5 5.5,10.2765 5.5,10 C5.5,9.7235 5.2765,9.5 5,9.5 L4,9.5 C3.7235,9.5 3.5,9.7235 3.5,10 C3.5,10.2765 3.7235,10.5 4,10.5" id="Fill-9"></path>
                <path d="M11,10.5 L12,10.5 C12.2765,10.5 12.5,10.2765 12.5,10 C12.5,9.7235 12.2765,9.5 12,9.5 L11,9.5 C10.7235,9.5 10.5,9.7235 10.5,10 C10.5,10.2765 10.7235,10.5 11,10.5" id="Fill-11"></path>
                <path d="M7.5,10.5 L8.5,10.5 C8.7765,10.5 9,10.2765 9,10 C9,9.7235 8.7765,9.5 8.5,9.5 L7.5,9.5 C7.2235,9.5 7,9.7235 7,10 C7,10.2765 7.2235,10.5 7.5,10.5" id="Fill-13"></path>
                <path d="M4,13 L5,13 C5.2765,13 5.5,12.7765 5.5,12.5 C5.5,12.2235 5.2765,12 5,12 L4,12 C3.7235,12 3.5,12.2235 3.5,12.5 C3.5,12.7765 3.7235,13 4,13" id="Fill-15"></path>
                <path d="M7.5,13 L8.5,13 C8.7765,13 9,12.7765 9,12.5 C9,12.2235 8.7765,12 8.5,12 L7.5,12 C7.2235,12 7,12.2235 7,12.5 C7,12.7765 7.2235,13 7.5,13" id="Fill-17"></path>
            </g>
        </g>
    </g>
</svg>