<?xml version="1.0" encoding="UTF-8"?>
<svg width="16px" height="16px" viewBox="0 0 16 16" version="1.1" xmlns="http://www.w3.org/2000/svg" xmlns:xlink="http://www.w3.org/1999/xlink">
    <defs></defs>
    <g id="Symbols" stroke="none" stroke-width="1" fill="none" fill-rule="evenodd">
        <g id="Icons/Small/Filtros" fill="#0861FF">
            <g id="Group-3">
                <path d="M4,2 C5.104,2 6,2.896 6,4 C6,5.104 5.104,6 4,6 C2.896,6 2,5.104 2,4 C2,2.896 2.896,2 4,2 M4,8 C5.861,8 7.412,6.723 7.858,5 L15,5 C15.553,5 16,4.553 16,4 C16,3.447 15.553,3 15,3 L7.858,3 C7.412,1.277 5.861,0 4,0 C1.791,0 0,1.791 0,4 C0,6.209 1.791,8 4,8" id="Fill-1"></path>
                <path d="M12,14 C10.896,14 10,13.104 10,12 C10,10.896 10.896,10 12,10 C13.104,10 14,10.896 14,12 C14,13.104 13.104,14 12,14 M12,8 C10.139,8 8.588,9.277 8.142,11 L1,11 C0.447,11 0,11.447 0,12 C0,12.553 0.447,13 1,13 L8.142,13 C8.588,14.723 10.139,16 12,16 C14.209,16 16,14.209 16,12 C16,9.791 14.209,8 12,8" id="Fill-3"></path>
            </g>
        </g>
    </g>
</svg>