<?xml version="1.0" encoding="UTF-8"?>
<svg width="24px" height="24px" viewBox="0 0 24 24" version="1.1" xmlns="http://www.w3.org/2000/svg" xmlns:xlink="http://www.w3.org/1999/xlink">
    <!-- Generator: Sketch 43.1 (39012) - http://www.bohemiancoding.com/sketch -->
    <title>Group 3</title>
    <desc>Created with Sketch.</desc>
    <defs></defs>
    <g id="Page-1" stroke="none" stroke-width="1" fill="none" fill-rule="evenodd">
        <g id="E5/MOBILE-Projeto_docentes-novo-projeto" transform="translate(-311.000000, -1104.000000)" fill="#001B4B">
            <g id="Group-3" transform="translate(311.000000, 1104.000000)">
                <path d="M7.5,9 C6.672,9 6,8.328 6,7.5 C6,6.672 6.672,6 7.5,6 C8.328,6 9,6.672 9,7.5 C9,8.328 8.328,9 7.5,9 M7.5,4.5 C5.84325,4.5 4.5,5.84325 4.5,7.5 C4.5,9.15675 5.84325,10.5 7.5,10.5 C9.15675,10.5 10.5,9.15675 10.5,7.5 C10.5,5.84325 9.15675,4.5 7.5,4.5" id="Fill-1"></path>
                <path d="M22.5,17.377425 L17.56275,12.440925 C16.977,11.853675 16.0275,11.853675 15.44175,12.440925 L10.50225,17.379675 L8.56275,15.440925 C7.977,14.853675 7.0275,14.853675 6.44175,15.440925 L1.5,20.381925 L1.5,2.249925 C1.5,1.835175 1.83525,1.499925 2.25,1.499925 L21.75,1.499925 C22.16475,1.499925 22.5,1.835175 22.5,2.249925 L22.5,17.377425 Z M22.5,21.749925 C22.5,22.164675 22.16475,22.499925 21.75,22.499925 L2.25,22.499925 C2.04375,22.499925 1.857,22.416675 1.72125,22.281675 L6.972,17.030925 C7.26525,16.737675 7.73925,16.737675 8.0325,17.030925 C8.0325,17.030925 8.65575,17.654175 9.44175,18.440925 C10.22775,19.226175 10.7655,19.237425 11.56275,18.440925 C12.36,17.642925 15.972,14.030925 15.972,14.030925 C16.26525,13.737675 16.73925,13.737675 17.0325,14.030925 L22.5,19.498425 L22.5,21.749925 Z M1.5,21.749925 C1.5,21.957675 1.58475,22.145175 1.72125,22.281675 C1.584,22.145175 1.5,21.957675 1.5,21.749925 L1.5,21.749925 Z M22.5,-7.49999999e-05 L1.5,-7.49999999e-05 C0.67125,-7.49999999e-05 0,0.671175 0,1.499925 L0,22.499925 C0,23.329425 0.67125,23.999925 1.5,23.999925 L22.5,23.999925 C23.32875,23.999925 24,23.329425 24,22.499925 L24,1.499925 C24,0.671175 23.32875,-7.49999999e-05 22.5,-7.49999999e-05 L22.5,-7.49999999e-05 Z" id="Fill-3"></path>
            </g>
        </g>
    </g>
</svg>