<?xml version="1.0" encoding="UTF-8"?>
<svg width="24px" height="24px" viewBox="0 0 24 24" version="1.1" xmlns="http://www.w3.org/2000/svg" xmlns:xlink="http://www.w3.org/1999/xlink">
    <!-- Generator: Sketch 43.1 (39012) - http://www.bohemiancoding.com/sketch -->
    <title>Icons/Small/Publicar Projeto</title>
    <desc>Created with Sketch.</desc>
    <defs></defs>
    <g id="Page-1" stroke="none" stroke-width="1" fill="none" fill-rule="evenodd">
        <g id="E5/MOBILE-Projeto_docentes-novo-projeto" transform="translate(-106.000000, -1395.000000)" fill-rule="nonzero" fill="#001B4B">
            <g id="Group" transform="translate(106.000000, 1395.000000)">
                <g id="Icons/Small/Publicar-Projeto">
                    <path d="M22.5,0 L1.5,0 C0.671572875,-5.07265313e-17 1.01453063e-16,0.671572875 0,1.5 L0,22.5 C1.01453063e-16,23.3284271 0.671572875,24 1.5,24 L22.5,24 C23.3284271,24 24,23.3284271 24,22.5 L24,1.5 C24,0.671572875 23.3284271,5.07265313e-17 22.5,0 Z M22.5,21.75 C22.5,22.1642136 22.1642136,22.5 21.75,22.5 L2.25,22.5 C1.83578644,22.5 1.5,22.1642136 1.5,21.75 L1.5,7.5 L22.5,7.5 L22.5,21.75 Z M22.5,6 L1.5,6 L1.5,2.25 C1.5,1.83578644 1.83578644,1.5 2.25,1.5 L21.75,1.5 C22.1642136,1.5 22.5,1.83578644 22.5,2.25 L22.5,6 Z" id="Shape"></path>
                    <path d="M11.25,3 L6.75,3 C6.33578644,3 6,3.33578644 6,3.75 C6,4.16421356 6.33578644,4.5 6.75,4.5 L11.25,4.5 C11.6642136,4.5 12,4.16421356 12,3.75 C12,3.33578644 11.6642136,3 11.25,3 Z" id="Shape"></path>
                    <circle id="Oval" cx="3.75" cy="3.75" r="1"></circle>
                    <path d="M12.75,18.75 L18.75,18.75 C19.1642136,18.75 19.5,18.4142136 19.5,18 L19.5,12 C19.5,11.5857864 19.1642136,11.25 18.75,11.25 L12.75,11.25 C12.3357864,11.25 12,11.5857864 12,12 L12,18 C12,18.4142136 12.3357864,18.75 12.75,18.75 Z M13.5,12.75 L18,12.75 L18,17.25 L13.5,17.25 L13.5,12.75 Z" id="Shape"></path>
                    <path d="M5.25,12.75 L9.75,12.75 C10.1642136,12.75 10.5,12.4142136 10.5,12 C10.5,11.5857864 10.1642136,11.25 9.75,11.25 L5.25,11.25 C4.83578644,11.25 4.5,11.5857864 4.5,12 C4.5,12.4142136 4.83578644,12.75 5.25,12.75 Z" id="Shape"></path>
                    <path d="M5.25,15.75 L9.75,15.75 C10.1642136,15.75 10.5,15.4142136 10.5,15 C10.5,14.5857864 10.1642136,14.25 9.75,14.25 L5.25,14.25 C4.83578644,14.25 4.5,14.5857864 4.5,15 C4.5,15.4142136 4.83578644,15.75 5.25,15.75 Z" id="Shape"></path>
                    <path d="M5.25,18.75 L9.75,18.75 C10.1642136,18.75 10.5,18.4142136 10.5,18 C10.5,17.5857864 10.1642136,17.25 9.75,17.25 L5.25,17.25 C4.83578644,17.25 4.5,17.5857864 4.5,18 C4.5,18.4142136 4.83578644,18.75 5.25,18.75 Z" id="Shape"></path>
                </g>
            </g>
        </g>
    </g>
</svg>