<?xml version="1.0" encoding="UTF-8"?>
<svg width="32px" height="40px" viewBox="0 0 32 40" version="1.1" xmlns="http://www.w3.org/2000/svg" xmlns:xlink="http://www.w3.org/1999/xlink">
    <defs></defs>
    <g id="Symbols" stroke="none" stroke-width="1" fill="none" fill-rule="evenodd">
        <g id="Icons/Tipos-de-Arquivo/Amarelo/Video" fill="#FFCF15">
            <path d="M31,13.5 L27,13.5 L27,9 L30,9 C30.552,9 31,9.448 31,10 L31,13.5 Z M27,18.5 L31,18.5 L31,14.5 L27,14.5 L27,18.5 Z M27,23.5 L31,23.5 L31,19.5 L27,19.5 L27,23.5 Z M27,28.5 L31,28.5 L31,24.5 L27,24.5 L27,28.5 Z M27,33.5 L31,33.5 L31,29.5 L27,29.5 L27,33.5 Z M31,38 C31,38.5525 30.552,39 30,39 L27,39 L27,34.5 L31,34.5 L31,38 Z M6,39 L26,39 L26,24.5 L6,24.5 L6,39 Z M2,39 C1.448,39 1,38.5525 1,38 L1,34.5 L5,34.5 L5,39 L2,39 Z M1,33.5 L5,33.5 L5,29.5 L1,29.5 L1,33.5 Z M1,28.5 L5,28.5 L5,24.5 L1,24.5 L1,28.5 Z M1,23.5 L5,23.5 L5,19.5 L1,19.5 L1,23.5 Z M1,18.5 L5,18.5 L5,14.5 L1,14.5 L1,18.5 Z M1,10 C1,9.448 1.448,9 2,9 L5,9 L5,13.5 L1,13.5 L1,10 Z M6,23.5 L26,23.5 L26,9 L6,9 L6,23.5 Z M30,8 L2,8 C0.8945,8 0,8.8945 0,10 L0,38 C0,39.1055 0.8945,40 2,40 L30,40 C31.1055,40 32,39.1055 32,38 L32,10 C32,8.8945 31.1055,8 30,8 L30,8 Z" id="Page-1"></path>
        </g>
    </g>
</svg>