<?xml version="1.0" encoding="UTF-8"?>
<svg width="32px" height="40px" viewBox="0 0 32 40" version="1.1" xmlns="http://www.w3.org/2000/svg" xmlns:xlink="http://www.w3.org/1999/xlink">
    <defs></defs>
    <g id="Symbols" stroke="none" stroke-width="1" fill="none" fill-rule="evenodd">
        <g id="Icons/Tipos-de-Arquivo/Azul-Turquesa/Audio" fill="#00CACD">
            <path d="M30.5,20.5003 L24.5,20.5003 C24.2235,20.5003 24,20.2763 24,20.0003 C24,19.7233 24.2235,19.5003 24.5,19.5003 L30.5,19.5003 C30.7765,19.5003 31,19.7233 31,20.0003 C31,20.2763 30.7765,20.5003 30.5,20.5003 M30.5,18.5003 L24.5,18.5003 C23.6715,18.5003 23,19.1718 23,20.0003 C23,20.8278 23.6715,21.5003 24.5,21.5003 L30.5,21.5003 C31.3285,21.5003 32,20.8278 32,20.0003 C32,19.1718 31.3285,18.5003 30.5,18.5003" id="Fill-1"></path>
            <path d="M29.6133,27.86605 C29.5188,28.12655 29.2318,28.25905 28.9728,28.16505 L23.3338,26.11255 C23.0743,26.01805 22.9408,25.73155 23.0353,25.47205 C23.1298,25.21205 23.4163,25.07805 23.6763,25.17255 L29.3143,27.22505 C29.5743,27.31905 29.7078,27.60605 29.6133,27.86605 M29.6563,26.28555 L24.0188,24.23305 C23.2393,23.95005 22.3788,24.35155 22.0958,25.12955 C21.8123,25.90755 22.2133,26.76855 22.9923,27.05205 L28.6303,29.10505 C29.4093,29.38755 30.2693,28.98555 30.5528,28.20855 C30.8358,27.42955 30.4353,26.56855 29.6563,26.28555" id="Fill-3"></path>
            <path d="M23.334,13.88655 L28.972,11.83455 C29.2315,11.74005 29.5185,11.87405 29.613,12.13355 C29.7075,12.39355 29.5735,12.67955 29.3145,12.77405 L23.676,14.82605 C23.416,14.92055 23.1295,14.78705 23.035,14.52705 C22.9405,14.26755 23.074,13.98105 23.334,13.88655 M24.018,15.76555 L29.6565,13.71355 C30.4345,13.43055 30.836,12.56905 30.553,11.79255 C30.2695,11.01355 29.4085,10.61105 28.63,10.89455 L22.992,12.94705 C22.213,13.23055 21.812,14.09155 22.095,14.87005 C22.3785,15.64705 23.2395,16.04905 24.018,15.76555" id="Fill-5"></path>
            <path d="M19,34.0003 C19,35.0003 17.906,35.4063 17,34.5003 C16.4455,33.9453 10,27.5003 10,27.5003 C9.625,27.1253 9.2815,27.0003 8.7505,27.0003 L7,27.0003 L7,13.0003 L8.7505,13.0003 C9.2815,13.0003 9.5,13.0003 10,12.5003 C10,12.5003 16.383,6.1168 17,5.5003 C17.8905,4.6093 19,5.0153 19,6.0003 L19,34.0003 Z M4,27.0003 L6,27.0003 L6,13.0003 L4,13.0003 L4,27.0003 Z M3,27.0003 L2,27.0003 C1.448,27.0003 1,26.5523 1,26.0003 L1,14.0003 C1,13.4478 1.448,13.0003 2,13.0003 L3,13.0003 L3,27.0003 Z M18.7655,4.1538 C18.0195,3.8413 17.16,4.0148 16.586,4.5873 L9.4295,11.7428 C9.4295,11.7428 9.219,12.0003 8.75,12.0003 C8.1465,12.0003 2,12.0013 2,12.0013 C0.8945,12.0013 0,12.8958 0,14.0013 L0,26.0003 C0,27.1058 0.8945,28.0003 2,28.0003 L8.672,28.0003 C9,28.0003 9.2255,28.0533 9.5075,28.3353 C9.789,28.6168 16.586,35.4143 16.586,35.4143 C16.969,35.7973 17.4805,36.0003 18,36.0003 C18.258,36.0003 18.5175,35.9513 18.7655,35.8478 C19.5135,35.5393 20,34.8088 20,34.0003 L20,6.0013 C20,5.1928 19.5135,4.4623 18.7655,4.1538 L18.7655,4.1538 Z" id="Fill-7"></path>
        </g>
    </g>
</svg>