<?xml version="1.0" encoding="UTF-8"?>
<svg width="32px" height="40px" viewBox="0 0 32 40" version="1.1" xmlns="http://www.w3.org/2000/svg" xmlns:xlink="http://www.w3.org/1999/xlink">
    <defs></defs>
    <g id="Symbols" stroke="none" stroke-width="1" fill="none" fill-rule="evenodd">
        <g id="Icons/Tipos-de-Arquivo/Azul-Marinho/Documentos" fill="#001B4B">
            <path d="M5.71428571,16.25 C5.71428571,16.595625 5.96971429,16.875 6.28571429,16.875 L25.7142857,16.875 C26.0302857,16.875 26.2857143,16.595625 26.2857143,16.25 C26.2857143,15.904375 26.0302857,15.625 25.7142857,15.625 L6.28571429,15.625 C5.96971429,15.625 5.71428571,15.904375 5.71428571,16.25" id="Fill-1"></path>
            <path d="M25.7142857,23.125 L6.28571429,23.125 C5.96971429,23.125 5.71428571,23.404375 5.71428571,23.75 C5.71428571,24.095625 5.96971429,24.375 6.28571429,24.375 L25.7142857,24.375 C26.0302857,24.375 26.2857143,24.095625 26.2857143,23.75 C26.2857143,23.404375 26.0302857,23.125 25.7142857,23.125" id="Fill-3"></path>
            <path d="M25.7142857,26.875 L6.28571429,26.875 C5.96971429,26.875 5.71428571,27.154375 5.71428571,27.5 C5.71428571,27.845625 5.96971429,28.125 6.28571429,28.125 L25.7142857,28.125 C26.0302857,28.125 26.2857143,27.845625 26.2857143,27.5 C26.2857143,27.154375 26.0302857,26.875 25.7142857,26.875" id="Fill-5"></path>
            <path d="M25.7142857,30.625 L6.28571429,30.625 C5.96971429,30.625 5.71428571,30.904375 5.71428571,31.25 C5.71428571,31.595625 5.96971429,31.875 6.28571429,31.875 L25.7142857,31.875 C26.0302857,31.875 26.2857143,31.595625 26.2857143,31.25 C26.2857143,30.904375 26.0302857,30.625 25.7142857,30.625" id="Fill-7"></path>
            <path d="M25.7142857,19.375 L6.28571429,19.375 C5.96971429,19.375 5.71428571,19.654375 5.71428571,20 C5.71428571,20.345625 5.96971429,20.625 6.28571429,20.625 L25.7142857,20.625 C26.0302857,20.625 26.2857143,20.345625 26.2857143,20 C26.2857143,19.654375 26.0302857,19.375 25.7142857,19.375" id="Fill-9"></path>
            <path d="M6.28571429,12.5 L15.4285714,12.5 C15.7445714,12.5 16,12.220625 16,11.875 C16,11.529375 15.7445714,11.25 15.4285714,11.25 L6.28571429,11.25 C5.96971429,11.25 5.71428571,11.529375 5.71428571,11.875 C5.71428571,12.220625 5.96971429,12.5 6.28571429,12.5" id="Fill-11"></path>
            <path d="M30.8571429,37.5 C30.8571429,38.19 30.3451429,38.75 29.7142857,38.75 L2.28571429,38.75 C1.65485714,38.75 1.14285714,38.19 1.14285714,37.5 L1.14285714,2.5 C1.14285714,1.81 1.65485714,1.25 2.28571429,1.25 L22.8571429,1.25 L22.8571429,9.375 C22.8571429,9.720625 23.1125714,10 23.4285714,10 L30.8571429,10 L30.8571429,37.5 Z M24,2.13375 L30.0491429,8.75 L24,8.75 L24,2.13375 Z M31.832,8.9325 L23.8331429,0.18375 C23.7297143,0.07 23.5868571,0 23.4285714,0 L2.28571429,0 C1.02228571,0 0,1.118125 0,2.5 L0,37.5 C0,38.881875 1.02228571,40 2.28571429,40 L29.7142857,40 C30.9777143,40 32,38.881875 32,37.5 L32,9.375 C32,9.201875 31.936,9.045625 31.832,8.9325 L31.832,8.9325 Z" id="Fill-13"></path>
        </g>
    </g>
</svg>