<svg xmlns="http://www.w3.org/2000/svg" viewBox="0 0 32 32"><defs><style>.cls-1{fill:#231f20;}</style></defs><title>acervo</title><g id="Camada_2" data-name="Camada 2"><g id="Responsive_Icons" data-name="Responsive Icons"><path class="cls-1" d="M12.27,18l-7-2A1,1,0,1,0,4.73,18l7,2A1,1,0,0,0,12,20a1,1,0,0,0,.27-2Z"/><path class="cls-1" d="M12.27,14l-7-2A1,1,0,1,0,4.73,14l7,2A1,1,0,0,0,12,16a1,1,0,0,0,.27-2Z"/><path class="cls-1" d="M4.73,10l7,2A1,1,0,0,0,12,12a1,1,0,0,0,.27-2l-7-2A1,1,0,1,0,4.73,10Z"/><path class="cls-1" d="M26.73,16l-7,2A1,1,0,0,0,20,20a1,1,0,0,0,.28,0l7-2A1,1,0,0,0,26.73,16Z"/><path class="cls-1" d="M20,16a1,1,0,0,0,.28,0l7-2A1,1,0,0,0,26.73,12l-7,2A1,1,0,0,0,20,16Z"/><path class="cls-1" d="M20,12a1,1,0,0,0,.28,0l7-2A1,1,0,0,0,26.73,8l-7,2A1,1,0,0,0,20,12Z"/><path class="cls-1" d="M31.61.21A1,1,0,0,0,30.74,0L16,4,1.26,0A1,1,0,0,0,0,1V27a1,1,0,0,0,.74,1l15,4a1,1,0,0,0,.52,0l15-4A1,1,0,0,0,32,27V1A1,1,0,0,0,31.61.21ZM30,22.23,17,25.7V5.77L30,2.3ZM2,2.3,15,5.77V25.7L2,22.23Zm0,22,13,3.47V29.7L2,26.23Zm15,5.4V27.77L30,24.3v1.93Z"/></g></g></svg>