<svg xmlns="http://www.w3.org/2000/svg" viewBox="0 0 32 32"><defs><style>.cls-1{fill:#231f20;}</style></defs><title>busca</title><g id="Camada_2" data-name="Camada 2"><g id="Responsive_Icons" data-name="Responsive Icons"><path class="cls-1" d="M31.12,26.88l-5.34-5.34a14,14,0,1,0-4.24,4.24l5.34,5.34a3,3,0,1,0,4.24-4.24ZM14,26A12,12,0,1,1,26,14,12,12,0,0,1,14,26Zm15.71,3.71a1,1,0,0,1-1.41,0l-5.13-5.13a14.1,14.1,0,0,0,1.41-1.41l5.13,5.13A1,1,0,0,1,29.71,29.71Z"/><path class="cls-1" d="M14,4a1,1,0,0,0,0,2,8,8,0,0,1,8,8,1,1,0,0,0,2,0A10,10,0,0,0,14,4Z"/></g></g></svg>