<?xml version="1.0" encoding="UTF-8"?>
<svg width="14px" height="20px" viewBox="0 0 14 20" version="1.1" xmlns="http://www.w3.org/2000/svg" xmlns:xlink="http://www.w3.org/1999/xlink">
    <!-- Generator: Sketch 49 (51002) - http://www.bohemiancoding.com/sketch -->
    <title>Group 3</title>
    <desc>Created with Sketch.</desc>
    <defs></defs>
    <g id="Symbols" stroke="none" stroke-width="1" fill="none" fill-rule="evenodd">
        <g id="Navegação/Navbar/Desktop-Retraída" transform="translate(-23.000000, -792.000000)" fill="#001B4B">
            <g id="Group-2" transform="translate(0.000000, 792.000000)">
                <g id="Group-3" transform="translate(23.000000, 0.000000)">
                    <path d="M9.01561818,19.5232 C9.26443636,19.2625333 9.26443636,18.8412 9.01561818,18.5805333 L8.64270909,18.1898667 L1.4588,10.6638667 C1.21061818,10.4032 1.21061818,9.9812 1.4588,9.7212 L8.64270909,2.1952 L9.01561818,1.80453333 C9.26443636,1.54453333 9.26443636,1.12186667 9.01561818,0.861866667 C8.7668,0.6012 8.36461818,0.6012 8.1158,0.861866667 L0.558981818,8.77853333 C-0.1862,9.55986667 -0.1862,10.8258667 0.558981818,11.6065333 L8.1158,19.5232 C8.36461818,19.7838667 8.7668,19.7838667 9.01561818,19.5232" id="Fill-1"></path>
                    <path d="M13.6168455,19.5232 C13.8656636,19.2625333 13.8656636,18.8412 13.6168455,18.5805333 L13.2439364,18.1898667 L6.06002727,10.6638667 C5.81120909,10.4032 5.81120909,9.9812 6.06002727,9.7212 L13.2439364,2.1952 L13.6168455,1.80453333 C13.8656636,1.54453333 13.8656636,1.12186667 13.6168455,0.861866667 C13.3680273,0.6012 12.9658455,0.6012 12.7170273,0.861866667 L5.16020909,8.77853333 C4.41439091,9.55986667 4.41439091,10.8258667 5.16020909,11.6065333 L12.7170273,19.5232 C12.9658455,19.7838667 13.3680273,19.7838667 13.6168455,19.5232" id="Fill-4"></path>
                </g>
            </g>
        </g>
    </g>
</svg>