<svg xmlns="http://www.w3.org/2000/svg" viewBox="0 0 32 32"><defs><style>.cls-1{fill:#231f20;}</style></defs><title>contato</title><g id="Camada_2" data-name="Camada 2"><g id="Responsive_Icons" data-name="Responsive Icons"><path class="cls-1" d="M30,0H8A2,2,0,0,0,6,2V6H2A2,2,0,0,0,0,8V22a2,2,0,0,0,2,2H6v6a2,2,0,0,0,3.41,1.41L16.83,24H24a2,2,0,0,0,2-2V18h4a2,2,0,0,0,2-2V2A2,2,0,0,0,30,0ZM24,21a1,1,0,0,1-1,1H16.83a2.2,2.2,0,0,0-1.41.59L8,30V23a1,1,0,0,0-1-1H3a1,1,0,0,1-1-1V9A1,1,0,0,1,3,8H23a1,1,0,0,1,1,1Zm6-6a1,1,0,0,1-1,1H26V8a2,2,0,0,0-2-2H8V3A1,1,0,0,1,9,2H29a1,1,0,0,1,1,1Z"/><path class="cls-1" d="M7,14h5a1,1,0,0,0,0-2H7a1,1,0,0,0,0,2Z"/><path class="cls-1" d="M19,16H7a1,1,0,0,0,0,2H19a1,1,0,0,0,0-2Z"/></g></g></svg>