<svg xmlns="http://www.w3.org/2000/svg" viewBox="0 0 32 28"><defs><style>.cls-1{fill:#231f20;}</style></defs><title>equipe</title><g id="Camada_2" data-name="Camada 2"><g id="Responsive_Icons" data-name="Responsive Icons"><path class="cls-1" d="M30,4H26V1a1,1,0,0,0-1-1H21a1,1,0,0,0-1,1V4H12V1a1,1,0,0,0-1-1H7A1,1,0,0,0,6,1V4H2A2,2,0,0,0,0,6V26a2,2,0,0,0,2,2H30a2,2,0,0,0,2-2V6A2,2,0,0,0,30,4ZM22,2h2V6H22ZM8,2h2V6H8ZM30,25a1,1,0,0,1-1,1H3a1,1,0,0,1-1-1V7A1,1,0,0,1,3,6H6V7A1,1,0,0,0,7,8h4a1,1,0,0,0,1-1V6h8V7a1,1,0,0,0,1,1h4a1,1,0,0,0,1-1V6h3a1,1,0,0,1,1,1Z"/><path class="cls-1" d="M21,15h2a1,1,0,0,0,0-2H21a1,1,0,0,0,0,2Z"/><path class="cls-1" d="M25,17H21a1,1,0,0,0,0,2h4a1,1,0,0,0,0-2Z"/><path class="cls-1" d="M13.24,17.32a4,4,0,1,0-4.47,0,5.69,5.69,0,0,0-3.71,3.37,1,1,0,1,0,1.9.63S7.76,19,11,19s4,2.23,4.05,2.32a1,1,0,1,0,1.9-.63A5.69,5.69,0,0,0,13.24,17.32ZM11,12a2,2,0,1,1-2,2A2,2,0,0,1,11,12Z"/></g></g></svg>