<svg xmlns="http://www.w3.org/2000/svg" viewBox="0 0 32 32"><defs><style>.cls-1{fill:#231f20;}</style></defs><title>eventos</title><g id="Camada_2" data-name="Camada 2"><g id="Responsive_Icons" data-name="Responsive Icons"><path class="cls-1" d="M30,2H25V1a1,1,0,0,0-2,0V2H9V1A1,1,0,0,0,7,1V2H2A2,2,0,0,0,0,4V30a2,2,0,0,0,2,2H30a2,2,0,0,0,2-2V4A2,2,0,0,0,30,2Zm0,27a1,1,0,0,1-1,1H3a1,1,0,0,1-1-1V10H30ZM30,8H2V5A1,1,0,0,1,3,4H7V5A1,1,0,0,0,9,5V4H23V5a1,1,0,0,0,2,0V4h4a1,1,0,0,1,1,1Z"/><path class="cls-1" d="M8,16h2a1,1,0,0,0,0-2H8a1,1,0,0,0,0,2Z"/><path class="cls-1" d="M22,16h2a1,1,0,0,0,0-2H22a1,1,0,0,0,0,2Z"/><path class="cls-1" d="M15,16h2a1,1,0,0,0,0-2H15a1,1,0,0,0,0,2Z"/><path class="cls-1" d="M8,21h2a1,1,0,0,0,0-2H8a1,1,0,0,0,0,2Z"/><path class="cls-1" d="M22,21h2a1,1,0,0,0,0-2H22a1,1,0,0,0,0,2Z"/><path class="cls-1" d="M15,21h2a1,1,0,0,0,0-2H15a1,1,0,0,0,0,2Z"/><path class="cls-1" d="M8,26h2a1,1,0,0,0,0-2H8a1,1,0,0,0,0,2Z"/><path class="cls-1" d="M15,26h2a1,1,0,0,0,0-2H15a1,1,0,0,0,0,2Z"/></g></g></svg>