<svg xmlns="http://www.w3.org/2000/svg" viewBox="0 0 32 32.01"><defs><style>.cls-1{fill:#231f20;}</style></defs><title>início</title><g id="Camada_2" data-name="Camada 2"><g id="Responsive_Icons" data-name="Responsive Icons"><path class="cls-1" d="M31.72,15.29l-10-10-5-5a1,1,0,0,0-1.41,0L11,5V3a1,1,0,0,0-1-1H6A1,1,0,0,0,5,3v8L.28,16a1,1,0,0,0,0,1.39.93.93,0,0,0,1.36.06L3,16V30a2,2,0,0,0,2,2H27a2,2,0,0,0,2-2V15.41l1.32,1.32a1,1,0,0,0,1.38,0A1,1,0,0,0,31.72,15.29ZM9,4V7L7,9V4Zm9,26H14V22h4Zm9-1a1,1,0,0,1-1,1H20V21a1,1,0,0,0-1-1H13a1,1,0,0,0-1,1v9H6a1,1,0,0,1-1-1V14L16,2.42l11,11Z"/></g></g></svg>