<svg xmlns="http://www.w3.org/2000/svg" viewBox="0 0 32 32"><defs><style>.cls-1{fill:#231f20;}</style></defs><title>login</title><g id="Camada_2" data-name="Camada 2"><g id="Responsive_Icons" data-name="Responsive Icons"><path class="cls-1" d="M30,23.75a28,28,0,0,0-28,0s-2,1-2,2.75V30a2,2,0,0,0,2,2H30a2,2,0,0,0,2-2V26.5C32,24.66,30,23.75,30,23.75ZM16,22a25.93,25.93,0,0,1,6,.71,8.94,8.94,0,0,1-12,0A26,26,0,0,1,16,22Zm14,7a1,1,0,0,1-1,1H3a1,1,0,0,1-1-1V27a1.31,1.31,0,0,1,.75-1.37,25.91,25.91,0,0,1,5.06-2.3,10.94,10.94,0,0,0,16.35,0,26,26,0,0,1,5.12,2.33A1.27,1.27,0,0,1,30,27Z"/><path class="cls-1" d="M16,18a7,7,0,0,0,7-7V6a6,6,0,0,0-6-6H15A6,6,0,0,0,9,6v5A7,7,0,0,0,16,18ZM15,2h2a4,4,0,0,1,4,4H11A4,4,0,0,1,15,2ZM11,8H21v3a5,5,0,0,1-10,0Z"/></g></g></svg>