<svg xmlns="http://www.w3.org/2000/svg" viewBox="0 0 32 32"><defs><style>.cls-1{fill:#231f20;}</style></defs><title>projetos</title><g id="Camada_2" data-name="Camada 2"><g id="Responsive_Icons" data-name="Responsive Icons"><path class="cls-1" d="M30,2H17V1a1,1,0,0,0-2,0V2H2A2,2,0,0,0,0,4V24a2,2,0,0,0,2,2H12.73l-2.6,4.5a1,1,0,0,0,1.73,1L15,26H17l3.18,5.5a1,1,0,0,0,1.73-1L19.27,26H30a2,2,0,0,0,2-2V4A2,2,0,0,0,30,2Zm0,21a1,1,0,0,1-1,1H3a1,1,0,0,1-1-1V5A1,1,0,0,1,3,4H29a1,1,0,0,1,1,1Z"/><path class="cls-1" d="M18,10H14a1,1,0,0,0-1,1V22h6V11A1,1,0,0,0,18,10ZM17,20H15V12h2Z"/><path class="cls-1" d="M26,6H22a1,1,0,0,0-1,1V22h6V7A1,1,0,0,0,26,6ZM25,20H23V8h2Z"/><path class="cls-1" d="M10,14H6a1,1,0,0,0-1,1v7h6V15A1,1,0,0,0,10,14ZM9,20H7V16H9Z"/></g></g></svg>