<svg xmlns="http://www.w3.org/2000/svg" viewBox="0 0 32 32"><defs><style>.cls-1{fill:#231f20;}</style></defs><title>publicações</title><g id="Camada_2" data-name="Camada 2"><g id="Responsive_Icons" data-name="Responsive Icons"><path class="cls-1" d="M30,0H8A2,2,0,0,0,6,2V15H2a2,2,0,0,0-2,2V28a4,4,0,0,0,4,4H28a4,4,0,0,0,4-4V2A2,2,0,0,0,30,0ZM2,28V18a1,1,0,0,1,1-1H6V28a2,2,0,0,1-4,0Zm26,2H7.45A4,4,0,0,0,8,28V3A1,1,0,0,1,9,2H29a1,1,0,0,1,1,1V28A2,2,0,0,1,28,30Z"/><path class="cls-1" d="M25,15H13a1,1,0,0,0,0,2H25a1,1,0,0,0,0-2Z"/><path class="cls-1" d="M25,19H13a1,1,0,0,0,0,2H25a1,1,0,0,0,0-2Z"/><path class="cls-1" d="M25,23H13a1,1,0,0,0,0,2H25a1,1,0,0,0,0-2Z"/><path class="cls-1" d="M25,11H13a1,1,0,0,0,0,2H25a1,1,0,0,0,0-2Z"/><path class="cls-1" d="M13,9h6a1,1,0,0,0,0-2H13a1,1,0,0,0,0,2Z"/></g></g></svg>