<?xml version="1.0" encoding="utf-8"?>
<!-- Generator: Adobe Illustrator 21.1.0, SVG Export Plug-In . SVG Version: 6.00 Build 0)  -->
<svg version="1.1" id="Layer_1" xmlns="http://www.w3.org/2000/svg" xmlns:xlink="http://www.w3.org/1999/xlink" x="0px" y="0px"
	 viewBox="0 0 32 32" style="enable-background:new 0 0 32 32;" xml:space="preserve">
<style type="text/css">
	.st0{fill:#FFCF15;}
</style>
<title>publicações</title>
<g id="Camada_2">
	<g id="Responsive_Icons">
		<path class="st0" d="M30,0H8C6.9,0,6,0.9,6,2v13H2c-1.1,0-2,0.9-2,2v11c0,2.2,1.8,4,4,4h24c2.2,0,4-1.8,4-4V2C32,0.9,31.1,0,30,0z
			 M2,28V18c0-0.6,0.4-1,1-1h3v11c0,1.1-0.9,2-2,2S2,29.1,2,28z M28,30H7.4C7.8,29.4,8,28.7,8,28V3c0-0.6,0.4-1,1-1h20
			c0.6,0,1,0.4,1,1v25C30,29.1,29.1,30,28,30z"/>
		<path class="st0" d="M25,15H13c-0.6,0-1,0.4-1,1c0,0.6,0.4,1,1,1h12c0.6,0,1-0.4,1-1C26,15.4,25.6,15,25,15z"/>
		<path class="st0" d="M25,19H13c-0.6,0-1,0.4-1,1s0.4,1,1,1h12c0.6,0,1-0.4,1-1S25.6,19,25,19z"/>
		<path class="st0" d="M25,23H13c-0.6,0-1,0.4-1,1s0.4,1,1,1h12c0.6,0,1-0.4,1-1S25.6,23,25,23z"/>
		<path class="st0" d="M25,11H13c-0.6,0-1,0.4-1,1s0.4,1,1,1h12c0.6,0,1-0.4,1-1S25.6,11,25,11z"/>
		<path class="st0" d="M13,9h6c0.6,0,1-0.4,1-1s-0.4-1-1-1h-6c-0.6,0-1,0.4-1,1S12.4,9,13,9z"/>
	</g>
</g>
</svg>
