<?xml version="1.0" encoding="UTF-8"?>
<svg width="16px" height="16px" viewBox="0 0 16 16" version="1.1" xmlns="http://www.w3.org/2000/svg" xmlns:xlink="http://www.w3.org/1999/xlink">
    <defs></defs>
    <g id="Page-1" stroke="none" stroke-width="1" fill="none" fill-rule="evenodd">
        <g id="E5/icons/Arroba" fill="#001B4B">
            <path d="M11.7917223,12.1608301 C10.7022697,12.1608301 9.91188251,11.6627756 9.69826435,10.8741894 C9.12149533,11.7457847 8.1388518,12.2023346 7.19893191,12.2023346 C5.31909212,12.2023346 3.95193591,10.7496757 3.95193591,8.63294423 C3.95193591,5.89364462 5.89586115,3.88067445 8.18157543,3.88067445 C9.03604806,3.88067445 10.0186916,4.27496757 10.3391188,5.14656291 L10.5313752,4.15045396 L12.411215,4.15045396 L11.2790387,9.29701686 C11.2576769,9.40077821 11.2149533,9.60830091 11.2149533,9.73281453 C11.2149533,10.1478599 11.4072096,10.5214008 11.941255,10.5214008 C13.0734312,10.5214008 14.141522,8.8612192 14.141522,6.80674449 C14.141522,3.83916991 11.8130841,1.70168612 8.37383178,1.70168612 C4.69959947,1.70168612 1.96528705,4.27496757 1.96528705,8.13488975 C1.96528705,11.6627756 4.42189586,14.3190661 8.56608812,14.3190661 C9.99732977,14.3190661 11.4499332,13.9040208 12.6889186,12.9909209 L13.6502003,14.2568093 C12.4539386,15.3359274 10.317757,16 8.56608812,16 C3.56742323,16 -8.149037e-13,12.845655 -8.149037e-13,8.13488975 C-8.149037e-13,3.29961089 3.78104139,-1.24344979e-14 8.35246996,-1.24344979e-14 C12.7102804,-1.24344979e-14 16,2.90531777 16,6.78599222 C16,9.91958495 14.0133511,12.1400778 11.7917223,12.1608301 Z M9.86915888,7.38780804 C9.86915888,6.28793774 9.31375167,5.62386511 8.2670227,5.62386511 C6.79305741,5.62386511 5.93858478,7.1387808 5.93858478,8.48767834 C5.93858478,9.60830091 6.42990654,10.4798962 7.58344459,10.4798962 C8.88651535,10.4798962 9.82643525,9.19325551 9.86915888,7.38780804 Z" id="@"></path>
        </g>
    </g>
</svg>