<?xml version="1.0" encoding="UTF-8"?>
<svg width="34px" height="35px" viewBox="0 0 34 35" version="1.1" xmlns="http://www.w3.org/2000/svg" xmlns:xlink="http://www.w3.org/1999/xlink">
    <defs></defs>
    <g id="Page-1" stroke="none" stroke-width="1" fill="none" fill-rule="evenodd">
        <g id="E5/icons/Calendario-grande" fill="#001B4B">
            <path d="M32.9375,7.96875 L1.0625,7.96875 L1.0625,4.25 C1.0625,3.6635 1.5385,3.1875 2.125,3.1875 L5.84375,3.1875 L5.84375,5.3125 C5.84375,6.19278125 6.55721875,6.90625 7.4375,6.90625 C8.31778125,6.90625 9.03125,6.19278125 9.03125,5.3125 L9.03125,3.1875 L24.96875,3.1875 L24.96875,5.3125 C24.96875,6.19278125 25.6822187,6.90625 26.5625,6.90625 C27.4427812,6.90625 28.15625,6.19278125 28.15625,5.3125 L28.15625,3.1875 L31.875,3.1875 C32.4615,3.1875 32.9375,3.6635 32.9375,4.25 L32.9375,7.96875 Z M32.9375,31.875 C32.9375,32.4615 32.4615,32.9375 31.875,32.9375 L2.125,32.9375 C1.5385,32.9375 1.0625,32.4615 1.0625,31.875 L1.0625,9.03125 L32.9375,9.03125 L32.9375,31.875 Z M6.90625,1.59375 C6.90625,1.29996875 7.14371875,1.0625 7.4375,1.0625 C7.73128125,1.0625 7.96875,1.29996875 7.96875,1.59375 L7.96875,3.1875 L7.96875,5.3125 C7.96875,5.60628125 7.73128125,5.84375 7.4375,5.84375 C7.14371875,5.84375 6.90625,5.60628125 6.90625,5.3125 L6.90625,3.1875 L6.90625,1.59375 Z M26.03125,1.59375 C26.03125,1.29996875 26.2687187,1.0625 26.5625,1.0625 C26.8562812,1.0625 27.09375,1.29996875 27.09375,1.59375 L27.09375,3.1875 L27.09375,5.3125 C27.09375,5.60628125 26.8562812,5.84375 26.5625,5.84375 C26.2687187,5.84375 26.03125,5.60628125 26.03125,5.3125 L26.03125,3.1875 L26.03125,1.59375 Z M31.875,2.125 L28.15625,2.125 L28.15625,1.59375 C28.15625,0.71346875 27.4427812,0 26.5625,0 C25.6822187,0 24.96875,0.71346875 24.96875,1.59375 L24.96875,2.125 L9.03125,2.125 L9.03125,1.59375 C9.03125,0.71346875 8.31778125,0 7.4375,0 C6.55721875,0 5.84375,0.71346875 5.84375,1.59375 L5.84375,2.125 L2.125,2.125 C0.95040625,2.125 0,3.07540625 0,4.25 L0,31.875 C0,33.0495938 0.95040625,34 2.125,34 L31.875,34 C33.0495937,34 34,33.0495938 34,31.875 L34,4.25 C34,3.07540625 33.0495937,2.125 31.875,2.125 L31.875,2.125 Z" id="calendario"></path>
        </g>
    </g>
</svg>