<?xml version="1.0" encoding="UTF-8"?>
<svg width="210px" height="140px" viewBox="0 0 210 140" version="1.1" xmlns="http://www.w3.org/2000/svg" xmlns:xlink="http://www.w3.org/1999/xlink">
    <defs></defs>
    <g id="Symbols" stroke="none" stroke-width="1" fill="none" fill-rule="evenodd">
        <g id="Misc/Ilustra/Eventos">
            <g id="Group-13">
                <rect id="Rectangle-12-Copy" fill="#FFCF15" transform="translate(51.261905, 17.333333) scale(1, -1) translate(-51.261905, -17.333333) " x="14.5952381" y="10.6666667" width="73.3333333" height="13.3333333" rx="6.66666667"></rect>
                <rect id="Rectangle-12" fill="#00CACD" x="14.5952381" y="16" width="73.3333333" height="63.3333333" rx="7"></rect>
                <ellipse id="Oval-Copy-4" fill="#00CACD" fill-rule="nonzero" cx="15.8275862" cy="98.1130319" rx="15.8275862" ry="16.1130319"></ellipse>
                <path d="M143.045255,38.6808865 L143.045255,26.573094 C143.043688,23.2139405 145.515768,20.3870947 148.793432,20 L209.355304,20 C206.074776,20.3844968 203.598375,23.2113426 203.597077,26.573094 L203.597077,108.718865 L203.597077,108.718865 L203.597077,109.823759 C203.584161,113.185657 201.10852,116.008907 197.828801,116.401968 L137.261905,116.401968 C140.542345,116.014849 143.016656,113.185723 143.015107,109.823759 L143.015107,108.289184 L143.015107,108.289184 L143.015107,32.0719858" id="Shape-Copy-26" fill="#00CACD" fill-rule="nonzero"></path>
                <path d="M191.818753,106.666667 L191.818753,109.996693 C191.817204,113.358657 194.291515,116.187783 197.571955,116.574902 L137.010083,116.574902 C133.731636,116.185387 131.260061,113.356919 131.261906,109.996693 L131.261906,106.666667 L191.818753,106.666667 Z" id="Shape-Copy-25" fill="#FFCF15" fill-rule="nonzero"></path>
                <polyline id="Shape-Copy-24" stroke="#001B4B" stroke-width="2" points="189.901051 86.6666667 189.901051 94.6822606 186.248144 92.114406 182.595238 94.6822606 182.595238 86.6666667"></polyline>
                <ellipse id="Oval-Copy-3" stroke="#001B4B" stroke-width="2" cx="186.316683" cy="83.1459397" rx="5.05477833" ry="5.14593972"></ellipse>
                <path d="M185.928571,81.3333333 L185.928571,84.2797163" id="Shape-Copy-23" stroke="#001B4B" stroke-width="2"></path>
                <path d="M159.928571,49.3333333 L183.740296,49.3333333" id="Shape-Copy-22" stroke="#001B4B" stroke-width="2"></path>
                <path d="M151.261905,56.6666667 L191.368506,56.6666667" id="Shape-Copy-21" stroke="#001B4B" stroke-width="2"></path>
                <path d="M151.261905,64 L191.368506,64" id="Shape-Copy-20" stroke="#001B4B" stroke-width="2"></path>
                <path d="M151.261905,71.3333333 L191.368506,71.3333333" id="Shape-Copy-19" stroke="#001B4B" stroke-width="2"></path>
                <path d="M151.261905,78 L175.098752,78" id="Shape-Copy-18" stroke="#001B4B" stroke-width="2"></path>
                <path d="M151.261905,85.3333333 L167.094516,85.3333333" id="Shape-Copy-17" stroke="#001B4B" stroke-width="2"></path>
                <path d="M109.261905,32 L109.261905,34.5627394" id="Shape-Copy-16" stroke="#001B4B" stroke-width="2"></path>
                <path d="M102.595238,35.3333333 L104.775928,36.6172606" id="Shape-Copy-15" stroke="#001B4B" stroke-width="2"></path>
                <path d="M102.595238,42.6172606 L104.780952,41.3333333" id="Shape-Copy-14" stroke="#001B4B" stroke-width="2"></path>
                <path d="M108.595238,45.8960727 L108.595238,43.3333333" id="Shape-Copy-13" stroke="#001B4B" stroke-width="2"></path>
                <path d="M114.775928,42.6172606 L112.595238,41.3333333" id="Shape-Copy-12" stroke="#001B4B" stroke-width="2"></path>
                <path d="M114.775928,35.3333333 L112.595238,36.6172606" id="Shape-Copy-11" stroke="#001B4B" stroke-width="2"></path>
                <path d="M131.928571,50 L131.928571,54.8083333" id="Shape-Copy-10" stroke="#001B4B" stroke-width="2"></path>
                <rect id="Rectangle-path-Copy-2" stroke="#FFCF15" stroke-width="2" x="118.595238" y="8" width="8.32581281" height="8.47596631"></rect>
                <rect id="Rectangle-path-Copy" fill="#FFCF15" fill-rule="nonzero" x="121.928571" y="131.333333" width="5.20551724" height="5.29939716"></rect>
                <polyline id="Shape-Copy-9" stroke="#001B4B" stroke-width="2" points="116.595238 125.689716 116.595238 124.666667 117.600164 124.666667"></polyline>
                <path d="M119.261905,124.666667 L128.858949,124.666667" id="Shape-Copy-8" stroke="#001B4B" stroke-width="2" stroke-dasharray="3.47"></path>
                <polyline id="Shape-Copy-7" stroke="#001B4B" stroke-width="2" points="129.928571 124.666667 130.933498 124.666667 130.933498 125.689716"></polyline>
                <path d="M130.595238,128 L130.595238,137.765009" id="Shape-Copy-6" stroke="#001B4B" stroke-width="2" stroke-dasharray="3.47"></path>
                <polyline id="Shape-Copy-5" stroke="#001B4B" stroke-width="2" points="130.933498 138.666667 130.933498 139.689716 129.928571 139.689716"></polyline>
                <path d="M128.187258,139.333333 L118.595238,139.333333" id="Shape-Copy-4" stroke="#001B4B" stroke-width="2" stroke-dasharray="3.47"></path>
                <polyline id="Shape-Copy-3" stroke="#001B4B" stroke-width="2" points="117.600164 139.689716 116.595238 139.689716 116.595238 138.666667"></polyline>
                <path d="M116.595238,136.436791 L116.595238,126.666667" id="Shape-Copy-2" stroke="#001B4B" stroke-width="2" stroke-dasharray="3.47"></path>
                <ellipse id="Oval-Copy-2" stroke="#001B4B" stroke-width="2" cx="115.030378" cy="53.8364362" rx="3.76847291" ry="3.83643617"></ellipse>
                <ellipse id="Oval-Copy" stroke="#001B4B" stroke-width="2" stroke-dasharray="4" cx="32.9285714" cy="106.458998" rx="10.9285714" ry="11.1256649"></ellipse>
                <polyline id="Shape-Copy" stroke="#001B4B" stroke-width="2" stroke-linejoin="bevel" points="121.261905 76 123.045649 77.0230496 124.829392 76 126.618161 77.0230496 128.401905 76 130.190673 77.0230496 131.979442 76"></polyline>
                <path d="M91.9285714,126.4 C95.4619048,123.533333 97.7952381,119.133333 97.7952381,114.266667 C97.7952381,105.666667 90.7952381,98.6666667 82.1952381,98.6666667 C73.5952381,98.6666667 66.5952381,105.666667 66.5952381,114.266667 C66.5952381,119.133333 68.8619048,123.533333 72.3952381,126.333333 L69.1285714,129.6 C68.6619048,130.066667 68.6619048,130.8 69.1285714,131.266667 L69.4619048,131.6 C69.9285714,132.066667 70.6619048,132.066667 71.1285714,131.6 L74.7952381,127.933333 C76.9952381,129.133333 79.5285714,129.8 82.1952381,129.8 C84.8619048,129.8 87.3285714,129.133333 89.5285714,128 L93.1285714,131.6 C93.5952381,132.066667 94.3285714,132.066667 94.7952381,131.6 L95.1285714,131.266667 C95.5952381,130.8 95.5952381,130.066667 95.1285714,129.6 L91.9285714,126.4 L91.9285714,126.4 Z" id="Shape" fill="#FFCF15"></path>
                <ellipse id="Oval" fill="#00CACD" cx="82.1952381" cy="114.266667" rx="11.6" ry="11.6"></ellipse>
                <path d="M90.1466618,97.3162799 L88.0133285,96.5162799 C86.0799951,95.7829465 84.0133285,96.5162799 84.7466618,94.5829465 L84.8133285,94.3829465 C85.5466618,92.4496132 87.7466618,91.5162799 89.6133285,92.2496132 L91.7466618,93.0496132 C93.6799951,93.7829465 94.6133285,95.9829465 93.8799951,97.8496132 L93.8133285,98.0496132 C93.1466618,99.9829465 92.0799951,98.0496132 90.1466618,97.3162799 L90.1466618,97.3162799 Z" id="Shape" fill="#0861FF"></path>
                <path d="M73.9115179,97.3162799 L76.0448513,96.5162799 C77.9781846,95.7829465 80.0448513,96.5162799 79.3115179,94.5829465 L79.2448513,94.3829465 C78.5115179,92.4496132 76.3115179,91.5162799 74.4448513,92.2496132 L72.3115179,93.0496132 C70.3781846,93.7829465 69.4448513,95.9829465 70.1781846,97.8496132 L70.2448513,98.0496132 C70.9115179,99.9829465 71.9781846,98.0496132 73.9115179,97.3162799 L73.9115179,97.3162799 Z" id="Shape" fill="#0861FF"></path>
                <path d="M91.5952381,131.266667 C90.9952381,131.266667 90.4619048,131.066667 90.0619048,130.6 L86.9952381,127.533333 C82.5285714,129.666667 77.1285714,129.666667 72.6619048,127.466667 L69.5285714,130.6 C68.7285714,131.4 67.2619048,131.4 66.4619048,130.6 L66.1285714,130.266667 C65.7285714,129.866667 65.4619048,129.333333 65.4619048,128.733333 C65.4619048,128.133333 65.6619048,127.6 66.1285714,127.2 L68.5952381,124.733333 C65.1952381,121.6 63.2619048,117.2 63.2619048,112.6 C63.2619048,103.466667 70.7285714,96 79.8619048,96 C88.9952381,96 96.4619048,103.466667 96.4619048,112.6 C96.4619048,117.266667 94.5285714,121.666667 91.0619048,124.8 L93.4619048,127.2 C93.8619048,127.6 94.1285714,128.133333 94.1285714,128.733333 C94.1285714,129.333333 93.9285714,129.866667 93.4619048,130.266667 L93.1285714,130.6 C92.6619048,131.066667 92.1285714,131.266667 91.5952381,131.266667 L91.5952381,131.266667 Z M87.1285714,125.333333 C87.3952381,125.333333 87.6619048,125.466667 87.8619048,125.6 L91.4619048,129.2 C91.5285714,129.266667 91.5952381,129.266667 91.6619048,129.2 L91.9952381,128.866667 C92.0619048,128.8 92.0619048,128.8 92.0619048,128.733333 C92.0619048,128.733333 92.0619048,128.666667 91.9952381,128.6 L88.7952381,125.4 C88.5952381,125.2 88.4619048,124.933333 88.5285714,124.666667 C88.5285714,124.4 88.6619048,124.133333 88.9285714,123.933333 C92.3952381,121.133333 94.3952381,117 94.3952381,112.533333 C94.3952381,104.466667 87.8619048,97.9333333 79.7952381,97.9333333 C71.7285714,97.9333333 65.1952381,104.466667 65.1952381,112.533333 C65.1952381,116.933333 67.1952381,121.066667 70.5952381,123.866667 C70.7952381,124.066667 70.9285714,124.333333 70.9952381,124.6 C70.9952381,124.866667 70.9285714,125.133333 70.7285714,125.333333 L67.4619048,128.6 C67.3952381,128.666667 67.3952381,128.666667 67.3952381,128.733333 C67.3952381,128.733333 67.3952381,128.8 67.4619048,128.866667 L67.7952381,129.2 C67.8619048,129.266667 67.9285714,129.266667 67.9952381,129.2 L71.6619048,125.533333 C71.9952381,125.2 72.4619048,125.133333 72.8619048,125.333333 C74.9952381,126.466667 77.3952381,127.066667 79.7952381,127.066667 C82.1952381,127.066667 84.5285714,126.466667 86.6619048,125.333333 C86.7952381,125.4 86.9952381,125.333333 87.1285714,125.333333 L87.1285714,125.333333 Z" id="Shape" fill="#001B4B"></path>
                <path d="M79.8619048,125.2 C72.9285714,125.2 67.2619048,119.533333 67.2619048,112.6 C67.2619048,105.666667 72.9285714,100 79.8619048,100 C86.7952381,100 92.4619048,105.666667 92.4619048,112.6 C92.4619048,119.533333 86.7952381,125.2 79.8619048,125.2 L79.8619048,125.2 Z M79.8619048,102 C74.0619048,102 69.2619048,106.733333 69.2619048,112.6 C69.2619048,118.4 73.9952381,123.2 79.8619048,123.2 C85.6619048,123.2 90.4619048,118.466667 90.4619048,112.6 C90.3952381,106.8 85.6619048,102 79.8619048,102 L79.8619048,102 Z" id="Shape" fill="#001B4B"></path>
                <path d="M79.7285714,115.6 C77.9952381,115.6 76.5952381,114.2 76.5952381,112.466667 C76.5952381,110.733333 77.9952381,109.333333 79.7285714,109.333333 C81.4619048,109.333333 82.8619048,110.733333 82.8619048,112.466667 C82.7952381,114.2 81.3952381,115.6 79.7285714,115.6 L79.7285714,115.6 Z M79.7285714,111.333333 C79.1285714,111.333333 78.5952381,111.8 78.5952381,112.466667 C78.5952381,113.066667 79.0619048,113.6 79.7285714,113.6 C80.3285714,113.6 80.8619048,113.133333 80.8619048,112.466667 C80.7952381,111.866667 80.3285714,111.333333 79.7285714,111.333333 L79.7285714,111.333333 Z" id="Shape" fill="#001B4B"></path>
                <path d="M90.7022336,98.1333333 C90.0355669,98.1333333 89.4355669,97.7333333 88.8355669,97.3333333 C88.4355669,97.0666667 87.9022336,96.7333333 87.4355669,96.5333333 L85.3022336,95.7333333 C84.7689003,95.5333333 84.1689003,95.4666667 83.7022336,95.4 C82.8355669,95.2666667 81.9689003,95.2 81.5022336,94.4 C81.0355669,93.6666667 81.3689003,92.8 81.5022336,92.5333333 L81.5689003,92.3333333 C82.2355669,90.5333333 84.0355669,89.3333333 85.9689003,89.3333333 C86.5689003,89.3333333 87.1022336,89.4666667 87.6355669,89.6666667 L89.7689003,90.4666667 C92.2355669,91.4 93.4355669,94.1333333 92.5022336,96.6 L92.4355669,96.8 C91.9689003,97.8666667 91.2355669,98.1333333 90.7022336,98.1333333 L90.7022336,98.1333333 Z M83.3022336,93.2666667 C83.5022336,93.3333333 83.7022336,93.3333333 83.9022336,93.3333333 C84.5022336,93.4 85.2355669,93.5333333 85.9689003,93.8 L88.1022336,94.6 C88.8355669,94.8666667 89.4355669,95.3333333 89.9689003,95.6666667 C90.1022336,95.8 90.3689003,95.9333333 90.5022336,96 L90.5022336,95.9333333 L90.5689003,95.7333333 C91.1022336,94.3333333 90.4355669,92.7333333 88.9689003,92.2 L86.8355669,91.4 C86.5022336,91.2666667 86.1689003,91.2 85.8355669,91.2 C84.7022336,91.2 83.7022336,91.9333333 83.3022336,92.9333333 L83.2355669,93.1333333 C83.3022336,93.2 83.3022336,93.2 83.3022336,93.2666667 L83.3022336,93.2666667 Z" id="Shape" fill="#001B4B"></path>
                <path d="M70.044558,98.2666667 L70.044558,98.2666667 C69.5112246,98.2666667 68.7778913,98 68.3112246,96.8 L68.244558,96.6 C67.3112246,94.1333333 68.5112246,91.4 70.9778913,90.4666667 L73.1112246,89.6666667 C73.644558,89.4666667 74.244558,89.3333333 74.7778913,89.3333333 C76.7112246,89.3333333 78.5112246,90.5333333 79.1778913,92.3333333 L79.244558,92.5333333 C79.3778913,92.8 79.7112246,93.6666667 79.244558,94.4 C78.7778913,95.1333333 77.9112246,95.2666667 77.044558,95.4 C76.5112246,95.4666667 75.9778913,95.5333333 75.444558,95.7333333 L73.3112246,96.5333333 C72.7778913,96.7333333 72.3112246,97.0666667 71.9112246,97.3333333 C71.3112246,97.8666667 70.7112246,98.2666667 70.044558,98.2666667 L70.044558,98.2666667 Z M74.7778913,91.3333333 C74.444558,91.3333333 74.1112246,91.4 73.7778913,91.5333333 L71.644558,92.3333333 C70.244558,92.8666667 69.5112246,94.4666667 70.044558,95.8666667 L70.1112246,96.0666667 L70.1112246,96.1333333 C70.244558,96.0666667 70.444558,95.8666667 70.644558,95.8 C71.1112246,95.4666667 71.7778913,95 72.5112246,94.7333333 L74.644558,93.9333333 C75.3778913,93.6666667 76.1112246,93.5333333 76.7112246,93.4666667 C76.9112246,93.4666667 77.1778913,93.4 77.3112246,93.4 L77.3112246,93.3333333 L77.244558,93.1333333 C76.9112246,92.0666667 75.9112246,91.3333333 74.7778913,91.3333333 L74.7778913,91.3333333 Z" id="Shape" fill="#001B4B"></path>
                <rect id="Rectangle-15-Copy-11" fill="#0861FF" x="30.5952381" y="52.6666667" width="9.33333333" height="8" rx="2"></rect>
                <rect id="Rectangle-15-Copy-10" fill="#0861FF" x="43.9285714" y="52.6666667" width="9.33333333" height="8" rx="2"></rect>
                <rect id="Rectangle-15-Copy-9" fill="#0861FF" x="57.2619048" y="52.6666667" width="9.33333333" height="8" rx="2"></rect>
                <path d="M35.4285714,58.5 L39.9285714,58.5 L39.9285714,55.125 L35.4285714,55.125 L35.4285714,58.5 Z M34.3035714,60.75 L41.0535714,60.75 C41.6756964,60.75 42.1785714,60.247125 42.1785714,59.625 L42.1785714,54 C42.1785714,53.377875 41.6756964,52.875 41.0535714,52.875 L34.3035714,52.875 C33.6814464,52.875 33.1785714,53.377875 33.1785714,54 L33.1785714,59.625 C33.1785714,60.247125 33.6814464,60.75 34.3035714,60.75 L34.3035714,60.75 Z" id="Fill-1" fill="#001B4B"></path>
                <path d="M48.9285714,58.5 L53.4285714,58.5 L53.4285714,55.125 L48.9285714,55.125 L48.9285714,58.5 Z M47.8035714,60.75 L54.5535714,60.75 C55.1756964,60.75 55.6785714,60.247125 55.6785714,59.625 L55.6785714,54 C55.6785714,53.377875 55.1756964,52.875 54.5535714,52.875 L47.8035714,52.875 C47.1814464,52.875 46.6785714,53.377875 46.6785714,54 L46.6785714,59.625 C46.6785714,60.247125 47.1814464,60.75 47.8035714,60.75 L47.8035714,60.75 Z" id="Fill-3" fill="#001B4B"></path>
                <path d="M62.4285714,58.5 L66.9285714,58.5 L66.9285714,55.125 L62.4285714,55.125 L62.4285714,58.5 Z M61.3035714,60.75 L68.0535714,60.75 C68.6756964,60.75 69.1785714,60.247125 69.1785714,59.625 L69.1785714,54 C69.1785714,53.377875 68.6756964,52.875 68.0535714,52.875 L61.3035714,52.875 C60.6814464,52.875 60.1785714,53.377875 60.1785714,54 L60.1785714,59.625 C60.1785714,60.247125 60.6814464,60.75 61.3035714,60.75 L61.3035714,60.75 Z" id="Fill-4" fill="#001B4B"></path>
                <rect id="Rectangle-15-Copy-4" fill="#0861FF" x="30.5952381" y="42" width="9.33333333" height="8" rx="2"></rect>
                <path d="M35.4285714,46.125 L39.9285714,46.125 L39.9285714,42.75 L35.4285714,42.75 L35.4285714,46.125 Z M34.3035714,48.375 L41.0535714,48.375 C41.6756964,48.375 42.1785714,47.872125 42.1785714,47.25 L42.1785714,41.625 C42.1785714,41.002875 41.6756964,40.5 41.0535714,40.5 L34.3035714,40.5 C33.6814464,40.5 33.1785714,41.002875 33.1785714,41.625 L33.1785714,47.25 C33.1785714,47.872125 33.6814464,48.375 34.3035714,48.375 L34.3035714,48.375 Z" id="Fill-5" fill="#001B4B"></path>
                <rect id="Rectangle-15" fill="#0861FF" x="30.5952381" y="31.3333333" width="9.33333333" height="8" rx="2"></rect>
                <rect id="Rectangle-15-Copy" fill="#0861FF" x="43.9285714" y="31.3333333" width="9.33333333" height="8" rx="2"></rect>
                <rect id="Rectangle-15-Copy-5" fill="#0861FF" x="43.9285714" y="42" width="9.33333333" height="8" rx="2"></rect>
                <rect id="Rectangle-15-Copy-2" fill="#0861FF" x="57.2619048" y="31.3333333" width="9.33333333" height="8" rx="2"></rect>
                <rect id="Rectangle-15-Copy-6" fill="#0861FF" x="57.2619048" y="42" width="9.33333333" height="8" rx="2"></rect>
                <rect id="Rectangle-15-Copy-3" fill="#0861FF" x="70.5952381" y="31.3333333" width="9.33333333" height="8" rx="2"></rect>
                <rect id="Rectangle-15-Copy-7" fill="#0861FF" x="70.5952381" y="42" width="9.33333333" height="8" rx="2"></rect>
                <path d="M48.9285714,46.125 L53.4285714,46.125 L53.4285714,42.75 L48.9285714,42.75 L48.9285714,46.125 Z M47.8035714,48.375 L54.5535714,48.375 C55.1756964,48.375 55.6785714,47.872125 55.6785714,47.25 L55.6785714,41.625 C55.6785714,41.002875 55.1756964,40.5 54.5535714,40.5 L47.8035714,40.5 C47.1814464,40.5 46.6785714,41.002875 46.6785714,41.625 L46.6785714,47.25 C46.6785714,47.872125 47.1814464,48.375 47.8035714,48.375 L47.8035714,48.375 Z" id="Fill-6" fill="#001B4B"></path>
                <path d="M62.4285714,46.125 L66.9285714,46.125 L66.9285714,42.75 L62.4285714,42.75 L62.4285714,46.125 Z M61.3035714,48.375 L68.0535714,48.375 C68.6756964,48.375 69.1785714,47.872125 69.1785714,47.25 L69.1785714,41.625 C69.1785714,41.002875 68.6756964,40.5 68.0535714,40.5 L61.3035714,40.5 C60.6814464,40.5 60.1785714,41.002875 60.1785714,41.625 L60.1785714,47.25 C60.1785714,47.872125 60.6814464,48.375 61.3035714,48.375 L61.3035714,48.375 Z" id="Fill-7" fill="#001B4B"></path>
                <path d="M75.9285714,46.125 L80.4285714,46.125 L80.4285714,42.75 L75.9285714,42.75 L75.9285714,46.125 Z M74.8035714,48.375 L81.5535714,48.375 C82.1756964,48.375 82.6785714,47.872125 82.6785714,47.25 L82.6785714,41.625 C82.6785714,41.002875 82.1756964,40.5 81.5535714,40.5 L74.8035714,40.5 C74.1814464,40.5 73.6785714,41.002875 73.6785714,41.625 L73.6785714,47.25 C73.6785714,47.872125 74.1814464,48.375 74.8035714,48.375 L74.8035714,48.375 Z" id="Fill-8" fill="#001B4B"></path>
                <path d="M35.4285714,33.75 L39.9285714,33.75 L39.9285714,30.375 L35.4285714,30.375 L35.4285714,33.75 Z M34.3035714,36 L41.0535714,36 C41.6756964,36 42.1785714,35.497125 42.1785714,34.875 L42.1785714,29.25 C42.1785714,28.627875 41.6756964,28.125 41.0535714,28.125 L34.3035714,28.125 C33.6814464,28.125 33.1785714,28.627875 33.1785714,29.25 L33.1785714,34.875 C33.1785714,35.497125 33.6814464,36 34.3035714,36 L34.3035714,36 Z" id="Fill-9" fill="#001B4B"></path>
                <path d="M48.9285714,33.75 L53.4285714,33.75 L53.4285714,30.375 L48.9285714,30.375 L48.9285714,33.75 Z M47.8035714,36 L54.5535714,36 C55.1756964,36 55.6785714,35.497125 55.6785714,34.875 L55.6785714,29.25 C55.6785714,28.627875 55.1756964,28.125 54.5535714,28.125 L47.8035714,28.125 C47.1814464,28.125 46.6785714,28.627875 46.6785714,29.25 L46.6785714,34.875 C46.6785714,35.497125 47.1814464,36 47.8035714,36 L47.8035714,36 Z" id="Fill-10" fill="#001B4B"></path>
                <path d="M62.4285714,33.75 L66.9285714,33.75 L66.9285714,30.375 L62.4285714,30.375 L62.4285714,33.75 Z M61.3035714,36 L68.0535714,36 C68.6756964,36 69.1785714,35.497125 69.1785714,34.875 L69.1785714,29.25 C69.1785714,28.627875 68.6756964,28.125 68.0535714,28.125 L61.3035714,28.125 C60.6814464,28.125 60.1785714,28.627875 60.1785714,29.25 L60.1785714,34.875 C60.1785714,35.497125 60.6814464,36 61.3035714,36 L61.3035714,36 Z" id="Fill-11" fill="#001B4B"></path>
                <path d="M75.9285714,33.75 L80.4285714,33.75 L80.4285714,30.375 L75.9285714,30.375 L75.9285714,33.75 Z M74.8035714,36 L81.5535714,36 C82.1756964,36 82.6785714,35.497125 82.6785714,34.875 L82.6785714,29.25 C82.6785714,28.627875 82.1756964,28.125 81.5535714,28.125 L74.8035714,28.125 C74.1814464,28.125 73.6785714,28.627875 73.6785714,29.25 L73.6785714,34.875 C73.6785714,35.497125 74.1814464,36 74.8035714,36 L74.8035714,36 Z" id="Fill-12" fill="#001B4B"></path>
                <path d="M91.6785714,16.875 L24.1785714,16.875 L24.1785714,9 C24.1785714,7.758 25.1865714,6.75 26.4285714,6.75 L34.3035714,6.75 L34.3035714,11.25 C34.3035714,13.114125 35.8144464,14.625 37.6785714,14.625 C39.5426964,14.625 41.0535714,13.114125 41.0535714,11.25 L41.0535714,6.75 L74.8035714,6.75 L74.8035714,11.25 C74.8035714,13.114125 76.3144464,14.625 78.1785714,14.625 C80.0426964,14.625 81.5535714,13.114125 81.5535714,11.25 L81.5535714,6.75 L89.4285714,6.75 C90.6705714,6.75 91.6785714,7.758 91.6785714,9 L91.6785714,16.875 Z M91.6785714,67.5 C91.6785714,68.742 90.6705714,69.75 89.4285714,69.75 L26.4285714,69.75 C25.1865714,69.75 24.1785714,68.742 24.1785714,67.5 L24.1785714,19.125 L91.6785714,19.125 L91.6785714,67.5 Z M36.5535714,3.375 C36.5535714,2.752875 37.0564464,2.25 37.6785714,2.25 C38.3006964,2.25 38.8035714,2.752875 38.8035714,3.375 L38.8035714,6.75 L38.8035714,11.25 C38.8035714,11.872125 38.3006964,12.375 37.6785714,12.375 C37.0564464,12.375 36.5535714,11.872125 36.5535714,11.25 L36.5535714,6.75 L36.5535714,3.375 Z M77.0535714,3.375 C77.0535714,2.752875 77.5564464,2.25 78.1785714,2.25 C78.8006964,2.25 79.3035714,2.752875 79.3035714,3.375 L79.3035714,6.75 L79.3035714,11.25 C79.3035714,11.872125 78.8006964,12.375 78.1785714,12.375 C77.5564464,12.375 77.0535714,11.872125 77.0535714,11.25 L77.0535714,6.75 L77.0535714,3.375 Z M89.4285714,4.5 L81.5535714,4.5 L81.5535714,3.375 C81.5535714,1.510875 80.0426964,0 78.1785714,0 C76.3144464,0 74.8035714,1.510875 74.8035714,3.375 L74.8035714,4.5 L41.0535714,4.5 L41.0535714,3.375 C41.0535714,1.510875 39.5426964,0 37.6785714,0 C35.8144464,0 34.3035714,1.510875 34.3035714,3.375 L34.3035714,4.5 L26.4285714,4.5 C23.9411964,4.5 21.9285714,6.512625 21.9285714,9 L21.9285714,67.5 C21.9285714,69.987375 23.9411964,72 26.4285714,72 L89.4285714,72 C91.9159464,72 93.9285714,69.987375 93.9285714,67.5 L93.9285714,9 C93.9285714,6.512625 91.9159464,4.5 89.4285714,4.5 L89.4285714,4.5 Z" id="Fill-13" fill="#001B4B"></path>
            </g>
        </g>
    </g>
</svg>