<?xml version="1.0" encoding="UTF-8"?>
<svg width="16px" height="16px" viewBox="0 0 16 16" version="1.1" xmlns="http://www.w3.org/2000/svg" xmlns:xlink="http://www.w3.org/1999/xlink">
    <defs></defs>
    <g id="Page-1" stroke="none" stroke-width="1" fill="none" fill-rule="evenodd">
        <g id="E5/icons/Horário" fill="#001B4B">
            <g id="Page-1">
                <path d="M8,14 C4.687,14 2,11.313 2,8 C2,4.687 4.687,2 8,2 C11.313,2 14,4.687 14,8 C14,11.313 11.313,14 8,14 M8,0 C3.582,0 0,3.582 0,8 C0,12.418 3.582,16 8,16 C12.418,16 16,12.418 16,8 C16,3.582 12.418,0 8,0" id="Fill-1"></path>
                <path d="M9,7.5859 L9,3.9999 C9,3.4469 8.553,2.9999 8,2.9999 C7.447,2.9999 7,3.4469 7,3.9999 L7,7.9999 C7,8.1309 7.026,8.2599 7.077,8.3819 C7.128,8.5049 7.201,8.6159 7.294,8.7079 L9.277,10.6909 C9.669,11.0829 10.319,11.1029 10.711,10.7109 C11.102,10.3199 11.106,9.6919 10.715,9.3009 L9,7.5859 Z" id="Fill-3"></path>
            </g>
        </g>
    </g>
</svg>