<svg xmlns="http://www.w3.org/2000/svg" viewBox="0 0 609.46 751.59"><defs><style>.cls-1{fill:#00cacd;}.cls-10,.cls-2{fill:#ffcf15;}.cls-3{fill:#001b4b;}.cls-11,.cls-12,.cls-13,.cls-14,.cls-15,.cls-16,.cls-17,.cls-4,.cls-5,.cls-7,.cls-8,.cls-9{fill:none;}.cls-10,.cls-11,.cls-12,.cls-14,.cls-15,.cls-16,.cls-17,.cls-4,.cls-5{stroke:#001b4b;}.cls-10,.cls-11,.cls-13,.cls-14,.cls-15,.cls-16,.cls-17,.cls-4,.cls-5,.cls-7,.cls-8,.cls-9{stroke-width:2px;}.cls-12,.cls-5{stroke-linejoin:bevel;}.cls-6{fill:#ffd23d;}.cls-7{stroke:#fff;}.cls-11,.cls-13,.cls-7,.cls-8,.cls-9{stroke-miterlimit:10;}.cls-8{stroke:#ffd23d;}.cls-9{stroke:#00cacd;}.cls-12{stroke-width:5px;}.cls-13{stroke:#ffcf15;}.cls-14{stroke-dasharray:3.47 3.47;}.cls-15{stroke-dasharray:3.47 3.47;}.cls-16{stroke-dasharray:3.33 3.33;}.cls-17{stroke-dasharray:4;}</style></defs><title>ilustra-principal-v2</title><g id="Camada_2" data-name="Camada 2"><g id="Layer_4" data-name="Layer 4"><g id="Camada_2-2" data-name="Camada 2"><g id="Camada_1-2" data-name="Camada 1-2"><path class="cls-1" d="M318.16,254.47H266.72V292.4h50.18a13.55,13.55,0,0,1,12.67,13.52h0a13.52,13.52,0,0,1-13.49,13.51h0a13.52,13.52,0,0,1-13.51-13.51H266.72a51.45,51.45,0,0,0,51.44,51.44h0a51.45,51.45,0,0,0,51.45-51.45h0A51.45,51.45,0,0,0,318.16,254.47Z"/><polygon class="cls-2" points="247.03 303.63 247.03 292.4 285.66 292.4 285.66 254.47 247.03 254.47 247.03 243.25 285.66 243.25 285.66 205.32 247.03 205.32 208.98 205.32 208.98 243.25 208.98 254.47 208.98 292.4 208.98 303.63 208.98 355.02 208.98 355.02 302.58 355.02 302.58 305.92 247.03 305.92 247.03 303.63"/><rect class="cls-1" x="285.67" y="205.32" width="73.11" height="37.93"/><circle class="cls-3" cx="285.66" cy="224.28" r="18.96"/><circle class="cls-3" cx="285.64" cy="273.44" r="18.96"/><path class="cls-3" d="M266.72,305.92a51.47,51.47,0,0,0,35.85,49v-49Z"/></g></g><circle class="cls-1" cx="418.35" cy="580.2" r="31.5"/><path class="cls-1" d="M477.49,357.35V333.68a12.93,12.93,0,0,1,11.44-12.85c3.53,0,114.77,0,120.53,0A12.94,12.94,0,0,0,598,333.68V494.27h0l0,2.16a13,13,0,0,1-11.48,12.86c-3.53,0-114.78,0-120.54,0a12.94,12.94,0,0,0,11.45-12.86v-3h0V344.43"/><path class="cls-2" d="M574.11,489.93v6.51a12.94,12.94,0,0,0,11.45,12.86c-5.75,0-117,0-120.53,0a12.94,12.94,0,0,1-11.44-12.86v-6.51Z"/><polyline class="cls-4" points="570.16 450.28 570.16 465.95 562.89 460.93 555.62 465.95 555.62 450.28"/><circle class="cls-4" cx="562.89" cy="443.38" r="10.06"/><line class="cls-4" x1="562.89" y1="440.81" x2="562.89" y2="446.57"/><line class="cls-4" x1="510.2" y1="377.28" x2="557.59" y2="377.28"/><line class="cls-4" x1="493.99" y1="391.76" x2="573.81" y2="391.76"/><line class="cls-4" x1="493.99" y1="406.01" x2="573.81" y2="406.01"/><line class="cls-4" x1="493.99" y1="420.26" x2="573.81" y2="420.26"/><line class="cls-4" x1="493.99" y1="434.51" x2="541.43" y2="434.51"/><line class="cls-4" x1="493.99" y1="448.76" x2="525.5" y2="448.76"/><rect class="cls-1" x="203.53" y="500.75" width="108.44" height="60.13"/><path class="cls-4" d="M319.72,568.81V496.3a3.4,3.4,0,0,0-3.4-3.39H199.17a3.4,3.4,0,0,0-3.39,3.39v72.51Z"/><path class="cls-2" d="M271.1,517.56h23.79c.17-2.25.67-5.18,2.09-7.06,8.78-11.3,9.34-22.07,9.34-22.83a23.3,23.3,0,0,0-46.6,0c0,.76.55,11.52,9.33,22.83C270.46,512.38,271,515.31,271.1,517.56Z"/><line class="cls-5" x1="276.82" y1="517.49" x2="272.21" y2="491.89"/><line class="cls-5" x1="289.21" y1="517.5" x2="293.82" y2="491.89"/><polyline class="cls-5" points="380.88 346.16 384.43 348.16 387.98 346.16 391.54 348.16 395.09 346.16 398.65 348.16 402.21 346.16"/><line class="cls-5" x1="269.56" y1="517.83" x2="296.47" y2="517.83"/><line class="cls-5" x1="269.56" y1="524.91" x2="296.47" y2="524.91"/><line class="cls-5" x1="274.21" y1="531.99" x2="291.81" y2="531.99"/><line class="cls-5" x1="276.16" y1="524.33" x2="276.16" y2="518.15"/><line class="cls-4" x1="249.73" y1="398.38" x2="271.36" y2="398.25"/><line class="cls-4" x1="249.81" y1="412.43" x2="286.25" y2="412.22"/><line class="cls-4" x1="249.87" y1="422.75" x2="286.31" y2="422.54"/><line class="cls-4" x1="249.93" y1="433.08" x2="275.96" y2="432.92"/><circle class="cls-6" cx="172.71" cy="360.05" r="6.49"/><circle class="cls-6" cx="50.77" cy="385.79" r="4.05"/><circle class="cls-6" cx="77.19" cy="269.98" r="3.04"/><line class="cls-7" x1="160.04" y1="379.56" x2="160.04" y2="383.44"/><line class="cls-7" x1="152.98" y1="383.95" x2="156.34" y2="385.89"/><line class="cls-7" x1="153.26" y1="392.26" x2="156.62" y2="390.32"/><line class="cls-7" x1="160.59" y1="396.18" x2="160.59" y2="392.3"/><line class="cls-7" x1="167.65" y1="391.78" x2="164.29" y2="389.84"/><line class="cls-7" x1="167.37" y1="383.47" x2="164.01" y2="385.41"/><line class="cls-8" x1="55.24" y1="274.23" x2="55.24" y2="277.83"/><line class="cls-8" x1="48.39" y1="277.06" x2="50.94" y2="279.61"/><line class="cls-8" x1="45.55" y1="283.92" x2="49.15" y2="283.92"/><line class="cls-8" x1="48.39" y1="290.77" x2="50.94" y2="288.23"/><line class="cls-8" x1="55.24" y1="293.61" x2="55.24" y2="290.01"/><line class="cls-8" x1="62.1" y1="290.77" x2="59.55" y2="288.23"/><line class="cls-8" x1="64.94" y1="283.92" x2="61.34" y2="283.92"/><line class="cls-8" x1="62.1" y1="277.06" x2="59.55" y2="279.61"/><path class="cls-9" d="M95.57,346.43a33.31,33.31,0,0,1,.24-19"/><path class="cls-4" d="M119.55,385.33c0-1.23-.84-5.61-1.85-5.61H95.16c-1,0-1.85,4.38-1.85,5.61"/><path class="cls-4" d="M109,366.2a34,34,0,0,0,16.68-29.4,34.46,34.46,0,0,0-1.51-10.09H88.26a34.41,34.41,0,0,0-1.51,10.09,34,34,0,0,0,16.69,29.4v13.45"/><path class="cls-4" d="M117.78,358.73c11.1-3.81,18.95-15.09,19-28.38H125.1"/><path class="cls-4" d="M87.34,330.34H75.61c.11,13.3,8,24.58,19.05,28.39"/><rect class="cls-4" x="84.39" y="400.72" width="44.08" height="7.2"/><line class="cls-9" x1="114.86" y1="393.63" x2="98" y2="393.63"/><polyline class="cls-4" points="125.36 395.05 125.36 386.28 87.51 386.28 87.51 395.05"/><line class="cls-8" x1="105.31" y1="275.81" x2="105.31" y2="288.1"/><line class="cls-8" x1="75.62" y1="284.26" x2="81.77" y2="294.9"/><line class="cls-8" x1="54.13" y1="306.41" x2="64.77" y2="312.56"/><line class="cls-8" x1="46.6" y1="336.34" x2="58.89" y2="336.34"/><line class="cls-8" x1="55.04" y1="366.03" x2="65.68" y2="359.89"/><line class="cls-8" x1="77.2" y1="387.52" x2="83.34" y2="376.88"/><line class="cls-8" x1="136.82" y1="386.61" x2="130.68" y2="375.97"/><line class="cls-8" x1="158.31" y1="364.46" x2="147.67" y2="358.31"/><line class="cls-8" x1="165.84" y1="334.52" x2="153.55" y2="334.52"/><line class="cls-8" x1="157.4" y1="304.84" x2="146.75" y2="310.98"/><line class="cls-8" x1="135.24" y1="283.34" x2="129.1" y2="293.99"/><line class="cls-4" x1="217.18" y1="620.68" x2="297.63" y2="620.68"/><line class="cls-4" x1="217.18" y1="629.4" x2="286.25" y2="629.4"/><polyline class="cls-4" points="212.57 618.21 205.73 626.79 202.59 623.88"/><line class="cls-4" x1="217.18" y1="642.01" x2="297.63" y2="642.01"/><line class="cls-4" x1="217.18" y1="650.72" x2="286.25" y2="650.72"/><polyline class="cls-4" points="212.57 639.54 205.73 648.12 202.59 645.22"/><polyline class="cls-4" points="345.68 713.12 354.62 682.24 363.56 651.36 372.5 682.24 381.44 713.12"/><circle class="cls-4" cx="363.56" cy="644.35" r="7.95"/><line class="cls-4" x1="363.56" y1="635.46" x2="363.56" y2="623.3"/><path class="cls-4" d="M345,680.89a43.61,43.61,0,0,0,37.15,0"/><rect class="cls-1" x="370.15" y="79.81" width="148.54" height="103.83"/><path class="cls-4" d="M434.19,73.38H380.42v99.95h53.77a10.52,10.52,0,0,1,10.52,10.52V83.9A10.52,10.52,0,0,0,434.19,73.38Z"/><path class="cls-4" d="M489.19,173.32H454.64a10.52,10.52,0,0,0-10.52,10.52V83.9a10.52,10.52,0,0,1,10.52-10.52h53.77v21"/><path class="cls-4" d="M584.92,123.11H498.55a12.69,12.69,0,0,0-12.69,12.44h0v99.23h0c0-.24,0-.47,0-.72a12.7,12.7,0,0,1,12.7-12.7h86.37Z"/><path class="cls-4" d="M584.92,221.37H498.55a12.7,12.7,0,1,0,0,25.4h86.37Z"/><polygon class="cls-2" points="523.29 256.96 514.07 251.12 504.86 256.96 504.86 235.17 514.07 235.17 523.29 235.17 523.29 256.96"/><line class="cls-10" x1="497.6" y1="234.79" x2="584.92" y2="234.79"/><line class="cls-10" x1="497.6" y1="220.58" x2="497.6" y2="124.34"/><line class="cls-4" x1="521.71" y1="169.11" x2="560.76" y2="169.11"/><line class="cls-4" x1="526.29" y1="156.82" x2="556.18" y2="156.82"/><path class="cls-1" d="M271.9,87.82H279v-1a10.17,10.17,0,0,0-10.17-10.17h-7.15v1A10.17,10.17,0,0,0,271.9,87.82Z"/><path class="cls-4" d="M288,72.77h0a5.3,5.3,0,0,0-5.3,5.3v22.08"/><path class="cls-2" d="M276.16,92.47c8.8,3.64,10.84,3.09,18.28,0,17.52-7.68,36-2,33.43,31.9-1.76,17.12-10.53,32-30.72,32a39.69,39.69,0,0,1-11.71-1.7,39.65,39.65,0,0,1-11.72,1.76c-20.17,0-29-14.78-30.85-31.89C240.11,90.65,258.6,84.88,276.16,92.47Z"/><path class="cls-1" d="M284.87,86.27v8.59h18.78a9.59,9.59,0,0,0,9.59-9.59V76.68H294.45A9.59,9.59,0,0,0,284.87,86.27Z"/><line class="cls-4" x1="476.27" y1="270.24" x2="476.27" y2="275.51"/><line class="cls-4" x1="467.67" y1="275.2" x2="472.24" y2="277.84"/><line class="cls-4" x1="467.67" y1="285.14" x2="472.24" y2="282.5"/><line class="cls-4" x1="476.27" y1="290.1" x2="476.27" y2="284.83"/><line class="cls-4" x1="484.87" y1="285.14" x2="480.3" y2="282.5"/><line class="cls-4" x1="484.87" y1="275.2" x2="480.3" y2="277.84"/><path class="cls-1" d="M178.93,120.3a64.13,64.13,0,1,0,0,90.68A64.19,64.19,0,0,0,178.93,120.3Zm-13.47,77.21a45.07,45.07,0,1,1,0-63.74A45.1,45.1,0,0,1,165.46,197.51Z"/><rect class="cls-2" x="89.25" y="152.27" width="90.49" height="10.84"/><path class="cls-4" d="M88.43,153.53H84.48a.89.89,0,0,0-.88.91v6.49a.9.9,0,0,0,.88.92h3.95"/><line class="cls-4" x1="89.25" y1="152.27" x2="89.25" y2="163.11"/><polygon class="cls-4" points="178.39 153.54 180.1 153.54 189.1 157.69 180.11 161.85 178.39 161.85 178.39 153.54"/><path class="cls-11" d="M152.7,150a5,5,0,0,0-1,0h-3.9v17.57a4.88,4.88,0,0,0,9.76,0V154.92A4.88,4.88,0,0,0,152.7,150Z"/><path class="cls-11" d="M142.93,172.5a4.88,4.88,0,0,0,4.88-4.88V150h-9.76v10.56"/><path class="cls-11" d="M142.93,172.5a4.88,4.88,0,0,1-4.88-4.88V150h9.76v10.56"/><polyline class="cls-11" points="138.05 150.01 128.29 150.01 128.29 158.64 128.29 160.57 128.29 160.57"/><polyline class="cls-11" points="128.29 162.29 128.29 159.57 128.29 158.64 128.29 150.01 118.53 150.01 118.53 154.92 118.53 158.09 118.53 162.31"/><path class="cls-11" d="M118.62,162.08l-6.3,10c-2,3.32-2,6,0,8.77l9.88,12.36v58.55"/><path class="cls-11" d="M124.41,173.91h7.75a5.94,5.94,0,0,0,5.89-6.2v-5.27l-21.15,0"/><path class="cls-11" d="M157.58,162v16.74c0,3.42-7.23,14.35-7.23,14.35v15"/><path class="cls-11" d="M124.42,174.38A14.67,14.67,0,0,1,139.08,189"/><line class="cls-12" x1="133.5" y1="125.73" x2="133.5" y2="131.33"/><line class="cls-12" x1="123.44" y1="127.06" x2="124.89" y2="132.46"/><line class="cls-12" x1="114.06" y1="130.94" x2="116.86" y2="135.79"/><line class="cls-12" x1="106.01" y1="137.12" x2="109.97" y2="141.08"/><line class="cls-12" x1="99.83" y1="145.17" x2="104.68" y2="147.97"/><line class="cls-12" x1="95.95" y1="154.55" x2="101.35" y2="156"/><line class="cls-12" x1="94.62" y1="164.61" x2="100.22" y2="164.61"/><line class="cls-12" x1="95.95" y1="174.67" x2="101.35" y2="173.23"/><line class="cls-12" x1="99.83" y1="184.05" x2="104.68" y2="181.25"/><line class="cls-12" x1="106.01" y1="192.1" x2="109.97" y2="188.15"/><line class="cls-12" x1="160.99" y1="192.11" x2="157.03" y2="188.15"/><line class="cls-12" x1="167.17" y1="184.05" x2="162.32" y2="181.25"/><line class="cls-12" x1="171.06" y1="174.68" x2="165.65" y2="173.23"/><line class="cls-12" x1="172.38" y1="164.61" x2="166.78" y2="164.61"/><line class="cls-12" x1="171.06" y1="154.55" x2="165.65" y2="156"/><line class="cls-12" x1="167.17" y1="145.17" x2="162.32" y2="147.97"/><line class="cls-12" x1="161" y1="137.12" x2="157.04" y2="141.08"/><line class="cls-12" x1="152.94" y1="130.94" x2="150.14" y2="135.79"/><line class="cls-12" x1="143.57" y1="127.06" x2="142.12" y2="132.47"/><line class="cls-4" x1="82.36" y1="200.92" x2="82.36" y2="208.83"/><line class="cls-4" x1="69.46" y1="208.37" x2="76.31" y2="212.33"/><line class="cls-4" x1="69.46" y1="223.27" x2="76.31" y2="219.31"/><line class="cls-4" x1="82.36" y1="230.72" x2="82.36" y2="222.8"/><line class="cls-4" x1="95.26" y1="223.27" x2="88.41" y2="219.31"/><line class="cls-4" x1="95.26" y1="208.37" x2="88.41" y2="212.33"/><line class="cls-4" x1="506.22" y1="606.74" x2="506.22" y2="611.75"/><line class="cls-4" x1="493.98" y1="613.55" x2="498.32" y2="616.06"/><line class="cls-4" x1="493.76" y1="627.56" x2="498.11" y2="625.05"/><line class="cls-4" x1="505.78" y1="634.75" x2="505.78" y2="629.74"/><line class="cls-4" x1="518.02" y1="627.94" x2="513.68" y2="625.43"/><line class="cls-4" x1="518.24" y1="613.93" x2="513.9" y2="616.44"/><polygon class="cls-1" points="223.56 0 196.08 0 194.35 0 194.35 23.86 196.08 23.86 223.56 23.86 340.68 23.86 340.68 0 223.56 0"/><line class="cls-4" x1="208.37" y1="1.45" x2="208.37" y2="10.84"/><line class="cls-4" x1="218.32" y1="1.45" x2="218.32" y2="6.51"/><line class="cls-4" x1="228.26" y1="1.45" x2="228.26" y2="10.84"/><line class="cls-4" x1="238.2" y1="1.45" x2="238.2" y2="6.51"/><line class="cls-4" x1="248.14" y1="1.45" x2="248.14" y2="10.84"/><line class="cls-4" x1="258.08" y1="1.45" x2="258.08" y2="6.51"/><line class="cls-4" x1="268.02" y1="1.45" x2="268.02" y2="10.84"/><line class="cls-4" x1="277.96" y1="1.45" x2="277.96" y2="6.51"/><line class="cls-4" x1="287.9" y1="1.45" x2="287.9" y2="10.84"/><line class="cls-4" x1="297.85" y1="1.45" x2="297.85" y2="6.51"/><line class="cls-4" x1="307.79" y1="1.45" x2="307.79" y2="10.84"/><line class="cls-4" x1="317.73" y1="1.45" x2="317.73" y2="6.51"/><line class="cls-4" x1="442.57" y1="355.19" x2="442.57" y2="364.59"/><rect class="cls-13" x="525.76" y="559.95" width="16.57" height="16.57"/><rect class="cls-1" x="298.94" y="685.38" width="18.13" height="18.13"/><rect class="cls-2" x="498.37" y="559.81" width="10.36" height="10.36"/><rect class="cls-2" x="300.39" y="741.23" width="10.36" height="10.36"/><line class="cls-4" x1="392.86" y1="625.95" x2="392.86" y2="642.62"/><line class="cls-4" x1="401.19" y1="634.28" x2="384.53" y2="634.28"/><path class="cls-4" d="M179.58,438.1V426.81A2.55,2.55,0,0,0,177,424.3H158.42a2.56,2.56,0,0,0-2.62,2.51V438.1"/><line class="cls-4" x1="183.17" y1="439.45" x2="152.2" y2="439.45"/><line class="cls-4" x1="183.17" y1="447.45" x2="152.2" y2="447.45"/><line class="cls-4" x1="183.17" y1="455.45" x2="152.2" y2="455.45"/><polygon class="cls-4" points="146.74 497.01 146.74 500.94 134.87 521.57 122.99 500.94 122.99 497.01 146.74 497.01"/><polyline class="cls-4" points="559.9 582.44 559.9 580.44 561.9 580.44"/><line class="cls-14" x1="565.37" y1="580.44" x2="584.47" y2="580.44"/><polyline class="cls-4" points="586.2 580.44 588.2 580.44 588.2 582.44"/><line class="cls-15" x1="588.2" y1="585.91" x2="588.2" y2="605"/><polyline class="cls-4" points="588.2 606.74 588.2 608.74 586.2 608.74"/><line class="cls-14" x1="582.73" y1="608.74" x2="563.64" y2="608.74"/><polyline class="cls-4" points="561.9 608.74 559.9 608.74 559.9 606.74"/><line class="cls-15" x1="559.9" y1="603.27" x2="559.9" y2="584.17"/><rect class="cls-4" x="429.83" y="243.42" width="14" height="14"/><rect class="cls-1" x="429.83" y="221.92" width="14" height="14"/><polyline class="cls-4" points="407.33 223.92 407.33 221.92 409.33 221.92"/><line class="cls-16" x1="412.66" y1="221.92" x2="417.66" y2="221.92"/><polyline class="cls-4" points="419.33 221.92 421.33 221.92 421.33 223.92"/><line class="cls-16" x1="421.33" y1="227.25" x2="421.33" y2="232.25"/><polyline class="cls-4" points="421.33 233.92 421.33 235.92 419.33 235.92"/><line class="cls-16" x1="415.99" y1="235.92" x2="410.99" y2="235.92"/><polyline class="cls-4" points="409.33 235.92 407.33 235.92 407.33 233.92"/><line class="cls-16" x1="407.33" y1="230.59" x2="407.33" y2="225.59"/><path class="cls-17" d="M286.53,599.66h54.85A15.59,15.59,0,0,0,357,584.07h0a15.59,15.59,0,0,0-15.59-15.59H324.83"/><path class="cls-17" d="M229.18,600H36.59a15,15,0,0,0-15,15h0a15,15,0,0,0,15,15h6.84"/><rect class="cls-4" x="46.5" y="615.97" width="80.86" height="40.36" rx="1.44" ry="1.44"/><line class="cls-4" x1="121.32" y1="623.3" x2="115.13" y2="623.3"/><line class="cls-4" x1="112.37" y1="623.3" x2="106.19" y2="623.3"/><line class="cls-4" x1="103.43" y1="623.3" x2="97.25" y2="623.3"/><line class="cls-4" x1="94.49" y1="623.3" x2="88.3" y2="623.3"/><line class="cls-4" x1="85.54" y1="623.3" x2="79.36" y2="623.3"/><line class="cls-4" x1="76.6" y1="623.3" x2="70.42" y2="623.3"/><line class="cls-4" x1="67.66" y1="623.3" x2="61.47" y2="623.3"/><line class="cls-4" x1="58.71" y1="623.3" x2="52.53" y2="623.3"/><line class="cls-4" x1="121.32" y1="631.57" x2="115.13" y2="631.57"/><line class="cls-4" x1="112.37" y1="631.57" x2="106.19" y2="631.57"/><line class="cls-4" x1="103.43" y1="631.57" x2="97.25" y2="631.57"/><line class="cls-4" x1="94.49" y1="631.57" x2="88.3" y2="631.57"/><line class="cls-4" x1="85.54" y1="631.57" x2="79.36" y2="631.57"/><line class="cls-4" x1="76.6" y1="631.57" x2="70.42" y2="631.57"/><line class="cls-4" x1="67.66" y1="631.57" x2="61.47" y2="631.57"/><line class="cls-4" x1="58.71" y1="631.57" x2="52.53" y2="631.57"/><line class="cls-4" x1="121.32" y1="639.84" x2="115.13" y2="639.84"/><line class="cls-4" x1="112.37" y1="639.84" x2="106.19" y2="639.84"/><line class="cls-4" x1="103.43" y1="639.84" x2="97.25" y2="639.84"/><line class="cls-4" x1="94.49" y1="639.84" x2="88.3" y2="639.84"/><line class="cls-4" x1="85.54" y1="639.84" x2="79.36" y2="639.84"/><line class="cls-4" x1="76.6" y1="639.84" x2="70.42" y2="639.84"/><line class="cls-4" x1="67.66" y1="639.84" x2="61.47" y2="639.84"/><line class="cls-4" x1="58.71" y1="639.84" x2="52.53" y2="639.84"/><line class="cls-4" x1="121.32" y1="648.11" x2="115.13" y2="648.11"/><line class="cls-4" x1="112.37" y1="648.11" x2="106.19" y2="648.11"/><line class="cls-4" x1="103.43" y1="648.11" x2="70.33" y2="648.11"/><line class="cls-4" x1="67.66" y1="648.11" x2="61.47" y2="648.11"/><line class="cls-4" x1="58.71" y1="648.11" x2="52.53" y2="648.11"/><path class="cls-4" d="M195.76,568.73v10.46a4.58,4.58,0,0,0,4.05,4.24H316.54c2,0,3.2-2.06,3.2-4.07V568.73"/><path class="cls-4" d="M244,583.51c-.21,2.6.25,8.38-.31,11.21-.51,2.58-.87,2.67-2.24,3.43-.77.42-2.08,1-3.18,1.49h0"/><path class="cls-4" d="M277.2,599.66c-1.1-.48-2.43-1.08-3.21-1.51-1.37-.76-1.64-.85-2.15-3.43-.56-2.83-.1-8.47-.31-11.07"/><line class="cls-4" x1="234.82" y1="599.43" x2="280.68" y2="599.43"/><circle class="cls-2" cx="45.55" cy="528.02" r="30.34"/><path class="cls-4" d="M43.53,509a19,19,0,0,0-7,2.18,7.48,7.48,0,1,1-9.28,11.5A19.1,19.1,0,1,0,43.53,509Z"/><path class="cls-4" d="M45.55,508.06c-18.66,0-35,8-44.29,20,9.26,12,25.63,20,44.29,20s35-8,44.29-20C80.58,516,64.21,508.06,45.55,508.06Z"/><polygon class="cls-1" points="442.56 287.06 391.44 287.06 391.44 317.56 399.54 317.56 399.54 327.15 410.13 317.56 442.56 317.56 442.56 287.06"/><line class="cls-4" x1="401.43" y1="298.66" x2="432.58" y2="298.66"/><line class="cls-4" x1="401.43" y1="306.51" x2="432.58" y2="306.51"/><line class="cls-10" x1="150.89" y1="625.21" x2="145.34" y2="619.66"/><line class="cls-10" x1="149.06" y1="633.83" x2="141.48" y2="635.87"/><line class="cls-10" x1="155.61" y1="639.73" x2="153.58" y2="647.32"/><line class="cls-10" x1="164" y1="637.01" x2="169.55" y2="642.56"/><line class="cls-10" x1="165.83" y1="628.38" x2="173.42" y2="626.35"/><line class="cls-10" x1="159.28" y1="622.49" x2="161.31" y2="614.9"/><polygon class="cls-10" points="163.2 636.68 171 638.85 178.81 641.02 173.03 646.69 167.25 652.37 165.22 644.53 163.2 636.68"/><line class="cls-4" x1="172.93" y1="646.59" x2="179.61" y2="653.39"/><circle class="cls-4" cx="520.35" cy="628.19" r="7.5"/><circle class="cls-17" cx="453.6" cy="595.95" r="21.75"/><line class="cls-4" x1="322.98" y1="306.3" x2="328.41" y2="306.3"/><line class="cls-4" x1="303.62" y1="306.3" x2="309.04" y2="306.3"/><line class="cls-4" x1="319.5" y1="312.34" x2="322.21" y2="317.03"/><line class="cls-4" x1="309.82" y1="295.57" x2="312.53" y2="300.27"/><line class="cls-4" x1="312.53" y1="312.34" x2="309.82" y2="317.03"/><line class="cls-4" x1="322.21" y1="295.57" x2="319.5" y2="300.27"/><circle class="cls-4" cx="316.02" cy="306.3" r="5.73"/><path class="cls-17" d="M335.67,116.41a49.85,49.85,0,1,0-97.35,17.9"/><path class="cls-17" d="M302,315.43a16.31,16.31,0,0,0,31.47-6.9"/><line class="cls-17" x1="333.39" y1="307.1" x2="335.54" y2="117.45"/><line class="cls-17" x1="239.52" y1="138.9" x2="302.6" y2="318.52"/><line class="cls-17" x1="285.86" y1="140.79" x2="285.86" y2="132.42"/><line class="cls-17" x1="301.79" y1="134.19" x2="295.87" y2="128.28"/><line class="cls-17" x1="308.39" y1="118.26" x2="300.02" y2="118.26"/><line class="cls-17" x1="301.79" y1="102.33" x2="295.87" y2="108.25"/><line class="cls-17" x1="285.86" y1="95.73" x2="285.86" y2="104.1"/><line class="cls-17" x1="269.93" y1="102.33" x2="275.85" y2="108.25"/><line class="cls-17" x1="263.33" y1="118.26" x2="271.7" y2="118.26"/><line class="cls-17" x1="269.93" y1="134.19" x2="275.85" y2="128.28"/><polygon class="cls-4" points="285.67 128.72 280.73 120.17 275.8 111.62 285.67 111.62 295.54 111.62 290.61 120.17 285.67 128.72"/><path class="cls-4" d="M393.9,479.87h8.36a21.57,21.57,0,0,0,0-43.14H393.9Z"/><path class="cls-4" d="M393.9,422.09h8.36a21.57,21.57,0,1,0,0-43.14H393.9Z"/><path class="cls-4" d="M393.9,438.22a18.82,18.82,0,0,1,0-17.62"/><path class="cls-4" d="M373.62,421.61l-4.44-4.44a10.48,10.48,0,0,1,0-14.81l24.07-24.07"/><path class="cls-4" d="M373.62,524.25l-4.44-4.44a10.47,10.47,0,0,1,0-14.81l24.07-24.07"/><line class="cls-4" x1="393.78" y1="457.03" x2="404.78" y2="468.03"/><line class="cls-4" x1="404.78" y1="404.66" x2="415.78" y2="415.66"/><line class="cls-4" x1="413.16" y1="403.1" x2="421.54" y2="411.47"/><path class="cls-2" d="M413.7,490h8.17a7.51,7.51,0,0,1,0,15H413.7Z"/><circle class="cls-13" cx="391.02" cy="513.9" r="8.78"/><polyline class="cls-5" points="324.88 449.28 328.43 451.28 331.98 449.28 335.53 451.28 339.08 449.28 342.64 451.28 346.2 449.28"/><polyline class="cls-5" points="434.04 430.2 437.59 432.2 441.14 430.2 444.7 432.2 448.25 430.2 451.81 432.2 455.37 430.2"/></g></g></svg>