<svg xmlns="http://www.w3.org/2000/svg" viewBox="0 0 608.74 232.4"><defs><style>.cls-1{fill:#e30613;}.cls-2{fill:#1d1d1b;}.cls-3{fill:#fc0;}.cls-4{fill:#fff;}.cls-5{fill:#164194;}</style></defs><title>ita-logo</title><g id="Camada_2" data-name="Camada 2"><g id="Camada_1-2" data-name="Camada 1"><path class="cls-1" d="M289.86,104.49a48.67,48.67,0,0,1-5.34-66.4c2.69-3.36,4.6-10.05,4.4-15.9a27.43,27.43,0,0,0-9-19.44c-.91-.92-.71-1.67,1-1.47a62.84,62.84,0,0,1,37.27,103.82c-11.51,12.95-27.86-.25-28.25-.6Z"/><path class="cls-2" d="M285.62,3.5c11.88,8.47,16.06,25.83,4.12,46.65-10,17.47-5.41,30.79,6.11,44.35,1.3,1.53,3.42,3.73,5.42,6.1-9.73-25.22-9.74-35-2.84-50.63,10.35-23.4.2-39.63-10.71-45.92q-1-.29-2.11-.55Zm20.81,103.27c27.24-41.8,12.19-81.34,2.9-91.38l.2-.18q-1.85-1.47-3.81-2.81c9.14,13.08,12.71,34.52.43,63l-2.3-1c13.91-32.24,6.83-54.6-4.57-65.76a37.89,37.89,0,0,0-4-1.95c8.85,8.74,14.35,24.16,5.45,44.29-7.1,16.07-6.72,25.36,5.7,55.78Zm10.12-85c8.8,17.19,15.37,52.42-9.58,88.71l-1-.71h-2c0-3.19-7.56-10.78-10-13.64C281.74,81.76,277,67.33,287.57,48.9c11.59-20.22,7.11-36.14-3.79-43.63,5.16,7,10.28,20.36,1.8,33.5-6,9.34-10.81,19.63-10.4,31.33a47.26,47.26,0,0,0,15.53,33.46L289,105.42a49.77,49.77,0,0,1-16.35-35.23c-.44-12.46,4.67-23.28,10.8-32.78,9.25-14.34.65-29.14-4.45-33.76-1.82-1.84-.74-4,2-3.62a64.09,64.09,0,0,1,38,105.89l-1.87-1.67a61.58,61.58,0,0,0-.63-82.49Z"/><path class="cls-3" d="M390.38,175.36l-6.25,11.27-10.39-4.22a84.71,84.71,0,0,1-6.27,8.28l6.78,9-9.27,9-8.71-7.08a84.64,84.64,0,0,1-8.33,5.91l3.7,10.68-11.58,5.65L334,214.43a83.75,83.75,0,0,1-9.72,3.12L324.5,229l-12.76,1.79L308.86,220q-2.71.17-5.46.17-2.48,0-4.92-.14l-3.13,11-12.73-2,.41-11.29a83.68,83.68,0,0,1-9.88-3.11l-6.14,9.5-11.58-5.65,3.73-10.77a84.62,84.62,0,0,1-8.33-5.86L242,209l-9.27-9,6.82-9a84.77,84.77,0,0,1-6.2-8.09L222.72,187l-6.05-11.38,16.77-23.74,139.5-.2,17.43,23.69Z"/><path class="cls-3" d="M334.64,66.48c0-3.31.29-5.35.83-6.54C338.11,49.76,346.76,42.3,357,42.3c8.3,0,15.55,4.88,19.41,12.14a28.85,28.85,0,0,1,6.71-1l224.35-8.25a13.63,13.63,0,0,1-10.41,13.25l.63,0c-.89,5.77-5.58,10-11.57,11.45l-1.18.22,2.39-.31c-.19,6.3-4.86,10.73-11,12.47.21,0,.31,0,.31,0-.09,5.93-4.25,10.81-10.09,13L413.51,144a21.6,21.6,0,0,1,1,6.46c0,14.87-15,26.92-33.4,26.92-10.72,0-20.27-4.07-26.38-10.41q-9.11-8.8-20.08-5.47V128.42c.58-.18,1.66,0,3.49.92a23.37,23.37,0,0,0,16.34,1.44A20.7,20.7,0,0,0,359,117.5c0-14.78-7-16.83-14.17-25.53-7.43-9-10.08-14.45-10.16-25.21v-.29Z"/><path class="cls-2" d="M357.65,128.24a22,22,0,0,0,12.52-18.73c.76-14.58-13.42-19.11-12.62-34.26.55-10.54,7.62-18.36,17-21.55A20.72,20.72,0,0,0,357,43.56c-10.08,0-17.94,7.46-20.36,16.8-.74,1.63-.76,4.61-.76,6.12v.28c.11,13.69,6,21,15,29.91,6.55,6.48,9.3,10.79,9.3,20.84a23,23,0,0,1-2.57,10.74Zm-10.74,4.61c-4.81-.25-6.84-1.77-11-3.07v1.94a10.51,10.51,0,0,0,1.65,1.92c15.17,13.54,41,6,44.51-15.83a43.93,43.93,0,0,0-.51-14.3,21.8,21.8,0,0,1-.34-3.52c0-9.9,6.54-17.11,16.3-18.42L595.61,57.39a12.28,12.28,0,0,0,10.55-10.92l-223,8.2c-12.33.44-22.49,8.73-23.12,20.72-.73,14,13.44,18.71,12.62,34.26a24.52,24.52,0,0,1-25.77,23.2Zm67.82,9.46L566.13,94c4.91-1.83,8.41-5.63,9.14-10.21L414.64,124.63a25.09,25.09,0,0,1,1.6,8.86,26.71,26.71,0,0,1-1.51,8.82ZM577.88,83c-.46,6.17-5,11.1-10.9,13.32L415,144.84a22.88,22.88,0,0,1,.7,5.64c0,15.8-15.78,28.17-34.66,28.17-11,0-20.88-4.17-27.25-10.76-6.35-6.14-12.23-7.18-20.46-4.68V127.5c2.15-.68,3.23-.28,5.29.71a22.11,22.11,0,0,0,15.08,1.46,19.59,19.59,0,0,0,4-12.17c0-14.17-6.42-15.69-13.88-24.73s-10.36-14.87-10.45-26v-.29c0-3.24.27-5.49.89-7,2.79-10.6,11.87-18.47,22.74-18.47a23.29,23.29,0,0,1,20,11.93,30.21,30.21,0,0,1,6-.82l225.65-8.29v1.3a15,15,0,0,1-9.92,14.06c-1.08,5.31-5.12,9.29-10.26,11.17-.46,6.25-5,10.64-10.68,12.64ZM410,121c-.08,20.13-20.19,36.81-44.45,37.78a52.84,52.84,0,0,1-15.83-1.72c7.69,5.39,15.79,8.5,27,7.83,16.25-1,29.8-10,34.85-21.56l.17-.4-.12-.29.29-.12a24.31,24.31,0,0,0,1.77-9A22.79,22.79,0,0,0,410,121Zm-4.51-15.83a29.94,29.94,0,0,1,4.17,11.23,27.44,27.44,0,0,1,4,5.9L575.2,81.21c5.67-1.35,9.94-5,10.75-10.08l-180.44,34ZM394.38,84.84a43.16,43.16,0,0,1,5.46,13.43,35,35,0,0,1,4.13,4.64L585.84,68.6c5-1.19,8.87-4.42,10.23-8.74L397.81,84.06a19.16,19.16,0,0,0-3.43.78Zm-51.59,59.37c7.37,3.55,10.88,4.39,15.4,4.39,22.17,0,40.18-18.26,40.18-40.82a40.87,40.87,0,0,0-6.34-22c-5.19,2.62-8.32,7.72-8.32,14.19a50.65,50.65,0,0,0,.92,6.86,39.33,39.33,0,0,1-.09,11.32c-3.77,23.83-32.05,32.16-48.63,17.37V159.9c7.17-1.64,13.79.5,19.71,6.21,5.85,6.06,15.07,10,25.49,10,18,0,32.15-11.73,32.15-25.67a20.43,20.43,0,0,0-.38-3.93c-6.16,11.47-20.06,19.89-35.93,20.84-15.08.9-24.87-4.68-34.81-13.08-1-.46-2-1-2.9-1.48l1.22-2.19a47.59,47.59,0,0,0,25,5.64c23.46-.94,42-17,42-35.39a27.78,27.78,0,0,0-6.93-18.21,44.34,44.34,0,0,1,.29,5.11c0,23.91-19.1,43.33-42.69,43.33-5,0-8.94-1-16.49-4.64l1.09-2.26Z"/><path class="cls-3" d="M274.09,66.48c0-3.31-.29-5.35-.83-6.54C270.63,49.76,262,42.3,251.72,42.3c-8.3,0-15.55,4.88-19.41,12.14a28.85,28.85,0,0,0-6.71-1L1.25,45.17A13.63,13.63,0,0,0,11.66,58.42l-.63,0c.89,5.77,5.58,10,11.57,11.45l1.18.22-2.39-.31c.19,6.3,4.86,10.73,11,12.47-.21,0-.31,0-.31,0,.09,5.93,4.25,10.81,10.09,13L195.23,144a21.6,21.6,0,0,0-1,6.46c0,14.87,15,26.92,33.4,26.92,10.72,0,20.27-4.07,26.38-10.41q9.11-8.8,20.08-5.47V128.42c-.58-.18-1.66,0-3.49.92a23.37,23.37,0,0,1-16.34,1.44,20.7,20.7,0,0,1-4.52-13.28c0-14.78,7-16.83,14.17-25.53,7.43-9,10.08-14.45,10.16-25.21v-.29Z"/><path class="cls-2" d="M261.83,132.85a24.52,24.52,0,0,1-25.77-23.2c-.82-15.55,13.35-20.31,12.62-34.26-.63-12-10.8-20.28-23.12-20.72l-223-8.2A12.28,12.28,0,0,0,13.12,57.39L211.24,81.57c9.76,1.31,16.3,8.52,16.3,18.42a52.79,52.79,0,0,1-.94,7.2,36.74,36.74,0,0,0,.09,10.62c3.47,21.82,29.34,29.37,44.51,15.83a5.39,5.39,0,0,0,.45-.44,15.46,15.46,0,0,0,1.2-1.49v-1.94c-4.19,1.3-6.22,2.82-11,3.07ZM234.18,53.71c9.39,3.18,16.45,11,17,21.55.79,15.15-13.39,19.68-12.62,34.26a22,22,0,0,0,12.52,18.73,23,23,0,0,1-2.57-10.74c0-15.26,6.56-16.77,14.45-26.32,7.3-8.84,9.79-14,9.88-24.42v-.28c0-1.51,0-4.48-.76-6.12-2.42-9.33-10.29-16.8-20.36-16.8a20.72,20.72,0,0,0-17.54,10.15Zm-40.49,91.14L41.76,96.35C35.81,94.14,31.31,89.21,30.85,83c-5.73-2-10.22-6.39-10.68-12.64C15,68.52,11,64.54,9.92,59.23A15,15,0,0,1,0,45.17v-1.3l225.65,8.29a30.21,30.21,0,0,1,6,.82,23.29,23.29,0,0,1,20-11.93c10.87,0,19.94,7.87,22.74,18.47.63,1.46.89,3.71.89,7v.29c-.11,14.41-6.25,22.25-15.78,31.68-6.08,6-8.55,9.66-8.55,19.06a19.59,19.59,0,0,0,4,12.17,22.11,22.11,0,0,0,15.08-1.46c2.06-1,3.15-1.39,5.29-.71v35.72c-8.22-2.5-14.11-1.46-20.46,4.68-6.37,6.58-16.24,10.76-27.25,10.76-18.87,0-34.66-12.37-34.66-28.17a22.88,22.88,0,0,1,.7-5.64ZM33.46,83.78c.73,4.59,4.23,8.39,9.14,10.21L194,142.31a26.71,26.71,0,0,1-1.51-8.82,25.09,25.09,0,0,1,1.6-8.86L33.46,83.78ZM199.06,116.4a29.94,29.94,0,0,1,4.17-11.23l-180.44-34c.81,5.09,5.08,8.73,10.75,10.08L195.1,122.3a27.42,27.42,0,0,1,4-5.9ZM259,157.06a52.84,52.84,0,0,1-15.83,1.72c-24.26-1-44.37-17.65-44.45-37.78A22.79,22.79,0,0,0,195,133.49a24.32,24.32,0,0,0,1.77,9l.29.12-.12.29.16.37c5.06,11.57,18.61,20.61,34.86,21.59,11.25.67,19.35-2.44,27-7.83Zm-50.1-58.8a43.16,43.16,0,0,1,5.46-13.43,19.16,19.16,0,0,0-3.43-.78L12.83,59.88c1.2,4.3,5.08,7.53,10.06,8.72l181.86,34.31a35,35,0,0,1,4.13-4.64ZM267,146.47c-7.55,3.64-11.45,4.64-16.49,4.64-23.6,0-42.69-19.41-42.69-43.33a44.33,44.33,0,0,1,.29-5.11,27.78,27.78,0,0,0-6.93,18.21c0,18.39,18.58,34.46,42,35.39a47.59,47.59,0,0,0,25-5.64l1.22,2.19c-.94.52-1.91,1-2.9,1.48-9.94,8.4-19.73,14-34.81,13.08-15.87-1-29.77-9.37-35.93-20.84a20.44,20.44,0,0,0-.38,3.93c0,13.94,14.13,25.67,32.15,25.67,10.42,0,19.64-4,25.49-10,5.91-5.72,12.53-7.86,19.71-6.21V135.54C256.26,150.34,228,142,224.21,118.17a46.46,46.46,0,0,1,.52-15.06A19.34,19.34,0,0,0,225,100c0-6.47-3.14-11.56-8.32-14.19a40.87,40.87,0,0,0-6.34,22c0,22.56,18,40.82,40.18,40.82,4.52,0,8-.84,15.4-4.39l1.09,2.26Z"/><path class="cls-2" d="M383.57,185.06l4.58-8.26,3.19-.89-6.66,12.32L374.21,184q-2.4,3.52-5.14,6.78l6.85,9.05L365,210.3l-8.79-7.14q-3.28,2.58-6.81,4.83l3.74,10.79L339.6,225.4,333.5,216q-3.89,1.46-7.95,2.55l.22,11.54-15,2.1-2.89-10.87q-2.24.12-4.51.12-2,0-4-.09l-3.16,11.08L281.34,230l.42-11.39q-4.13-1.07-8.08-2.54l-6.2,9.58-13.58-6.62,3.77-10.88q-3.52-2.23-6.81-4.78l-8.9,7.23-10.87-10.5L238,191q-2.69-3.18-5.06-6.61l-10.77,4.16-6.57-12.36,2.7,0,5,9.2,10.56-4.07a99.35,99.35,0,0,0,7.33,9.57l-6.77,8.95,7.67,7.41,8.74-7.1a99.2,99.2,0,0,0,9.85,6.93L257,217.78l9.59,4.68,6.09-9.42a98,98,0,0,0,11.67,3.67l-.41,11.2,10.53,1.67,3.1-10.87c1.95.11,3.89.2,5.85.2,2.14,0,4.27-.1,6.41-.24l2.85,10.71,10.56-1.48-.22-11.3a98.12,98.12,0,0,0,11.49-3.69l6,9.28,9.59-4.68-3.66-10.57a99.16,99.16,0,0,0,9.85-7l8.63,7,7.67-7.41-6.72-8.89a99.08,99.08,0,0,0,7.4-9.78l10.31,4.19Z"/><path class="cls-2" d="M337.79,192.07a66,66,0,0,1-68.76,0l1.31-2.14a63.53,63.53,0,0,0,66.15,0l1.31,2.14Z"/><path class="cls-2" d="M242.14,185.76a79.1,79.1,0,0,1-6.62-9.44l1.88-1.12a76.9,76.9,0,0,0,6.44,9.18l-1.7,1.38Z"/><path class="cls-2" d="M352.4,191.81a74.45,74.45,0,0,1-98,0L256.1,190a71.94,71.94,0,0,0,94.65,0l1.65,1.89Z"/><path class="cls-2" d="M244.6,181.14q-2.1-2.73-4-5.65l1.85-1.17q1.79,2.83,3.84,5.48l-1.73,1.34Z"/><path class="cls-2" d="M359.5,191.74a79.24,79.24,0,0,1-112,.16l1.77-1.78A76.73,76.73,0,0,0,357.72,190l1.78,1.77Z"/><polygon class="cls-2" points="237.67 192.17 303.6 77.98 369.53 192.17 237.67 192.17 237.67 192.17"/><polygon class="cls-4" points="242.07 189.63 303.6 83.06 349.06 161.81 358.9 161.81 358.9 178.7 365.12 189.63 242.07 189.63 242.07 189.63"/><polygon class="cls-5" points="329.27 182.42 309.44 182.42 331.21 91.08 356.37 91.08 378.14 182.42 358.3 182.42 353.84 163.72 333.73 163.72 329.27 182.42 329.27 182.42"/><polygon class="cls-3" points="337.98 145.91 349.6 145.91 343.79 121.53 337.98 145.91 337.98 145.91"/><path class="cls-2" d="M348,144.65l-4.22-17.71-4.22,17.71Zm3.18,2.51h-14.8l7.4-31,7.4,31Z"/><path class="cls-2" d="M307.85,183.67l22.37-93.85h27.14l22.37,93.85H357.31L352.85,165H334.72l-4.46,18.7Zm3.18-2.51h17.26l4.46-18.7h22.09l4.46,18.7h17.26L355.38,92.33H332.2L311,181.17Z"/><polygon class="cls-5" points="259.83 82.25 259.83 64.46 347.37 64.46 347.37 82.25 313.48 82.25 313.48 146.01 293.72 146.01 293.72 82.25 259.83 82.25 259.83 82.25"/><path class="cls-2" d="M258.57,63.21h90.06v20.3h-33.9v63.76H292.47V83.51h-33.9V63.21Zm2.51,2.51V81H295v63.76h17.25V81h33.9V65.71Z"/><polygon class="cls-5" points="259.96 91.18 259.96 182.31 279.7 182.31 279.7 91.18 259.96 91.18 259.96 91.18"/><path class="cls-2" d="M261.22,181.06h17.22V92.44H261.22v88.62Zm-2.51,2.51V89.93h22.24v93.64Z"/></g></g></svg>