<svg xmlns="http://www.w3.org/2000/svg" viewBox="0 0 303.68 117.25"><defs><style>.cls-1{fill:#00cacd;}.cls-2{fill:#ffcf15;}.cls-3{fill:#001b4b;}</style></defs><title>logo-horizontal</title><g id="Camada_2" data-name="Camada 2"><g id="Camada_1-2" data-name="Camada 1"><path class="cls-1" d="M84.2,37.9H44.53V67.15h38.7A10.45,10.45,0,0,1,93,77.58h0A10.43,10.43,0,0,1,82.6,88h0A10.43,10.43,0,0,1,72.18,77.58H44.53A39.68,39.68,0,0,0,84.2,117.25h0a39.68,39.68,0,0,0,39.68-39.68h0A39.68,39.68,0,0,0,84.2,37.9Z"/><polygon class="cls-2" points="29.34 75.81 29.34 67.15 59.13 67.15 59.13 37.9 29.34 37.9 29.34 29.25 59.13 29.25 59.13 0 29.34 0 0 0 0 29.25 0 37.9 0 67.15 0 75.81 0 115.44 0 115.44 72.18 115.44 72.18 77.58 29.34 77.58 29.34 75.81"/><rect class="cls-1" x="59.13" width="56.38" height="29.25" transform="translate(174.65 29.25) rotate(180)"/><circle class="cls-3" cx="59.13" cy="14.62" r="14.62"/><circle class="cls-3" cx="59.12" cy="52.53" r="14.62"/><path class="cls-3" d="M44.53,77.58a39.69,39.69,0,0,0,27.65,37.81V77.58H44.53Z"/><path class="cls-3" d="M160.34,2.43h-5.2V4.49h4.3V6.71h-4.3V9.13h5.15v2.23h-7.38V.21h7.43Z"/><path class="cls-3" d="M166.75,6.63a5.35,5.35,0,0,1-1.69-.7,3.06,3.06,0,0,1-1.43-2.51,3,3,0,0,1,.81-2.28A3.87,3.87,0,0,1,167,0a5.53,5.53,0,0,1,3.34,1.11l.37.24-1.16,1.89-.4-.25A3.43,3.43,0,0,0,167,2.28a1.7,1.7,0,0,0-1,.41.78.78,0,0,0-.19.64c0,.57.41.89,1.43,1.15l.32.1A5.9,5.9,0,0,1,170.08,6,3.22,3.22,0,0,1,171,8.23a3.47,3.47,0,0,1-3.45,3.36,6.59,6.59,0,0,1-2-.27,6.17,6.17,0,0,1-2.66-1.69l1.62-1.53a3.85,3.85,0,0,0,3,1.26,1.23,1.23,0,0,0,1.22-1.13c0-.6-.68-1.16-1.85-1.56l0,0Z"/><path class="cls-3" d="M177.08.21a3.35,3.35,0,0,1,0,6.7h-1.38v4.45h-2.23V.21Zm0,4.47a1.12,1.12,0,0,0,1.11-1.11,1.13,1.13,0,0,0-1.11-1.13h-1.38V4.68Z"/><path class="cls-3" d="M192.38,10.77v.59h-11v-.59L186.73.21h.65Zm-3.25-1.64L187,4.58l-2.32,4.55Z"/><path class="cls-3" d="M199.14,12.23a1.82,1.82,0,0,1,1.46,2c-.18,1.89-2.51,1.93-3.34.86l.65-.7c.22.19,1.26.64,1.38-.4s-1.59-1.18-1.59-1.18V11.33a5.77,5.77,0,1,1,5.23-10.07l-1.43,1.65a3.48,3.48,0,1,0,.13,5.7l1.43,1.64a5.8,5.8,0,0,1-3.69,1.34h-.24Z"/><path class="cls-3" d="M217.16,5.77A5.77,5.77,0,1,1,211.39,0,5.78,5.78,0,0,1,217.16,5.77Zm-9.26,0a3.48,3.48,0,1,0,3.48-3.48A3.48,3.48,0,0,0,207.9,5.77Z"/><path class="cls-3" d="M228.42.21a5.48,5.48,0,0,1,3.93,1.62,5.32,5.32,0,0,1,1.19,1.78A5.32,5.32,0,0,1,234,5.77,5.34,5.34,0,0,1,233.54,8a5.1,5.1,0,0,1-1.19,1.77,5.58,5.58,0,0,1-3.93,1.64h-2.24v0h-.91V.21Zm0,8.92a3.35,3.35,0,0,0,0-6.7h-.92v6.7Z"/><path class="cls-3" d="M244,2.43h-5.2V4.49h4.29V6.71h-4.29V9.13h5.15v2.23h-7.38V.21H244Z"/><path class="cls-3" d="M160.34,28.41h-5.2v2.05h4.3v2.23h-4.3V35.1h5.15v2.23h-7.38V26.18h7.43Z"/><path class="cls-3" d="M166.75,32.61a5.34,5.34,0,0,1-1.69-.7,3.06,3.06,0,0,1-1.43-2.51,3,3,0,0,1,.81-2.27A3.87,3.87,0,0,1,167,26a5.54,5.54,0,0,1,3.34,1.11l.37.24-1.16,1.89-.4-.25a3.43,3.43,0,0,0-2.15-.76,1.7,1.7,0,0,0-1,.41.78.78,0,0,0-.19.64c0,.57.41.89,1.43,1.15l.32.1A5.9,5.9,0,0,1,170.08,32,3.22,3.22,0,0,1,171,34.2a3.47,3.47,0,0,1-3.45,3.36,6.6,6.6,0,0,1-2-.27,6.16,6.16,0,0,1-2.66-1.69l1.62-1.53a3.85,3.85,0,0,0,3,1.26,1.22,1.22,0,0,0,1.22-1.13c0-.6-.68-1.16-1.85-1.56l0,0Z"/><path class="cls-3" d="M181.36,26.18v2.23h-3.09v8.92H176V28.41h-3.1V26.18Z"/><path class="cls-3" d="M192.38,33.21a4.32,4.32,0,0,1-8.64,0v-7H186v7a2.09,2.09,0,0,0,2.1,2.08,2,2,0,0,0,1.46-.6,2.11,2.11,0,0,0,.62-1.46h0v-7h2.23v7Z"/><path class="cls-3" d="M198.15,26.18a5.49,5.49,0,0,1,3.93,1.62,5.56,5.56,0,0,1,1.19,6.12,5.11,5.11,0,0,1-1.19,1.77,5.58,5.58,0,0,1-3.93,1.64h-2.24v0H195V26.18Zm0,8.92a3.35,3.35,0,0,0,0-6.7h-.92v6.7Z"/><path class="cls-3" d="M218,31.75A5.77,5.77,0,1,1,212.2,26,5.78,5.78,0,0,1,218,31.75Zm-9.26,0a3.48,3.48,0,1,0,3.48-3.48A3.48,3.48,0,0,0,208.71,31.75Z"/><path class="cls-3" d="M223.43,32.61a5.34,5.34,0,0,1-1.69-.7,3.06,3.06,0,0,1-1.43-2.51,3,3,0,0,1,.81-2.27,3.87,3.87,0,0,1,2.59-1.1,5.54,5.54,0,0,1,3.34,1.11l.37.24-1.16,1.89-.4-.25a3.43,3.43,0,0,0-2.15-.76,1.7,1.7,0,0,0-1,.41.78.78,0,0,0-.19.64c0,.57.41.89,1.43,1.15l.32.1A5.9,5.9,0,0,1,226.75,32a3.22,3.22,0,0,1,.88,2.18,3.47,3.47,0,0,1-3.45,3.36,6.6,6.6,0,0,1-2-.27,6.16,6.16,0,0,1-2.66-1.69l1.62-1.53a3.85,3.85,0,0,0,3,1.26,1.22,1.22,0,0,0,1.22-1.13c0-.6-.68-1.16-1.85-1.56l0,0Z"/><path class="cls-3" d="M243,28.41h-5.2v2.05h4.29v2.23h-4.29V35.1H243v2.23h-7.38V26.18H243Z"/><path class="cls-3" d="M160.34,54.38h-5.2v2.05h4.3v2.23h-4.3v2.42h5.15V63.3h-7.38V52.15h7.43Z"/><path class="cls-3" d="M169.35,57.74l4,5.57h-2.74L168,59.66l-2.59,3.64h-2.74l4-5.57-4-5.58h2.74L168,55.81l2.59-3.66h2.74Z"/><path class="cls-3" d="M179.19,52.15a3.35,3.35,0,0,1,0,6.7h-1.38V63.3h-2.23V52.15Zm0,4.47a1.12,1.12,0,0,0,1.11-1.11,1.13,1.13,0,0,0-1.11-1.13h-1.38v2.24Z"/><path class="cls-3" d="M192.51,54.38h-5.2v2.05h4.3v2.23h-4.3v2.42h5.15V63.3h-7.38V52.15h7.43Z"/><path class="cls-3" d="M199.6,52.14a3.35,3.35,0,0,1,3.34,3.36,3,3,0,0,1-2.26,3L203,63.3h-2.37l-2.08-4.47v0l-1.11-2.4v6.87h-2.23V52.14Zm.14,4.45a1.1,1.1,0,0,0,1-1.1,1.12,1.12,0,0,0-1.11-1.13h-1Z"/><path class="cls-3" d="M208.73,54.38v6.7h1.18V63.3h-4.6V61.08h1.19v-6.7h-1.19V52.15h4.6v2.23Z"/><path class="cls-3" d="M220.2,54.38H215v2.05h4.3v2.23H215v2.42h5.15V63.3h-7.38V52.15h7.43Zm-3.25-6L219.63,50l-1.35,1.3-1.78-1.69-1.78,1.69L213.36,50,216,48.41Z"/><path class="cls-3" d="M231.56,63.3l-6.27-6.51V63.3h-2.23V52.15h.7l6.16,6.24V52.15h2.23V63.3Z"/><path class="cls-3" d="M242.91,54.86a3.48,3.48,0,1,0,.13,5.7l1.43,1.64a5.77,5.77,0,1,1-.13-9Z"/><path class="cls-3" d="M250.75,54.38v6.7h1.18V63.3h-4.6V61.08h1.19v-6.7h-1.19V52.15h4.6v2.23Z"/><path class="cls-3" d="M265.64,62.72v.59h-11v-.59L260,52.15h.65Zm-3.25-1.64-2.13-4.55-2.32,4.55Z"/><path class="cls-3" d="M270.73,58.58a5.35,5.35,0,0,1-1.69-.7,3.06,3.06,0,0,1-1.43-2.51,3,3,0,0,1,.81-2.28A3.87,3.87,0,0,1,271,52a5.53,5.53,0,0,1,3.34,1.11l.37.24-1.16,1.89-.4-.25a3.43,3.43,0,0,0-2.15-.76,1.7,1.7,0,0,0-1,.41.78.78,0,0,0-.19.64c0,.57.41.89,1.43,1.15l.32.1A5.9,5.9,0,0,1,274.06,58a3.22,3.22,0,0,1,.88,2.18,3.47,3.47,0,0,1-3.45,3.36,6.59,6.59,0,0,1-2-.27,6.17,6.17,0,0,1-2.66-1.69L268.49,60a3.85,3.85,0,0,0,3,1.26,1.23,1.23,0,0,0,1.22-1.13c0-.6-.68-1.16-1.85-1.56l0,0Z"/><path class="cls-3" d="M290,54.41h-5.2v2h4.3v2.2h-4.3V61h5.15v2.2h-7.38v-11H290Z"/><path class="cls-3" d="M301.45,63.24V56.48l-3.2,2.88-3.2-2.88v6.75h-2.23v-11h.76l4.66,4.19,4.65-4.19h.78v11Z"/><path class="cls-3" d="M160.34,80.35h-5.2V82.4h4.29v2.23h-4.29v2.42h5.15v2.23h-7.38V78.13h7.43Z"/><path class="cls-3" d="M171.7,89.28l-6.27-6.51v6.51h-2.23V78.13h.7l6.16,6.24V78.13h2.23V89.28Z"/><path class="cls-3" d="M178.7,84.55a5.36,5.36,0,0,1-1.69-.7,3.06,3.06,0,0,1-1.43-2.51,3,3,0,0,1,.81-2.28A3.87,3.87,0,0,1,179,78a5.53,5.53,0,0,1,3.34,1.11l.37.24-1.16,1.89-.4-.25a3.43,3.43,0,0,0-2.15-.76,1.7,1.7,0,0,0-1,.41.79.79,0,0,0-.19.64c0,.57.41.89,1.43,1.15l.32.1A5.9,5.9,0,0,1,182,84a3.22,3.22,0,0,1,.87,2.18,3.47,3.47,0,0,1-3.45,3.36,6.6,6.6,0,0,1-2-.27,6.17,6.17,0,0,1-2.66-1.69L176.46,86a3.85,3.85,0,0,0,3,1.26,1.22,1.22,0,0,0,1.22-1.13c0-.6-.68-1.16-1.85-1.56l0,0Z"/><path class="cls-3" d="M188.86,80.35v6.7H190v2.23h-4.6V87.05h1.19v-6.7h-1.19V78.13H190v2.23Z"/><path class="cls-3" d="M201.24,89.28,195,82.77v6.51h-2.23V78.13h.7l6.16,6.24V78.13h2.23V89.28Z"/><path class="cls-3" d="M216.08,83.69a5.77,5.77,0,1,1-5.77-5.77A5.78,5.78,0,0,1,216.08,83.69Zm-9.26,0a3.48,3.48,0,1,0,3.48-3.48A3.48,3.48,0,0,0,206.82,83.69Z"/><path class="cls-3" d="M227.34,78.13a5.48,5.48,0,0,1,3.93,1.62,5.56,5.56,0,0,1,1.19,6.13,5.11,5.11,0,0,1-1.19,1.77,5.58,5.58,0,0,1-3.93,1.64H225.1v0h-.91V78.13Zm0,8.92a3.35,3.35,0,0,0,0-6.7h-.92v6.7Z"/><path class="cls-3" d="M243,80.35h-5.2V82.4h4.29v2.23h-4.29v2.42H243v2.23h-7.38V78.13H243Z"/><path class="cls-3" d="M160.34,106.33h-5.2v2.05h4.3v2.23h-4.3V113h5.15v2.23h-7.38V104.1h7.43Z"/><path class="cls-3" d="M171.7,115.25l-6.27-6.51v6.51h-2.23V104.1h.7l6.16,6.24V104.1h2.23v11.15Z"/><path class="cls-3" d="M186.13,108.38v6.87H183.9v-1.11a5.81,5.81,0,0,1-3.52,1.3,5.75,5.75,0,0,1,.06-11.5h0a5.74,5.74,0,0,1,3.55,1.27l-1.61,1.58a3.53,3.53,0,0,0-2-.62h0a3.51,3.51,0,0,0-2.5,1,3.28,3.28,0,0,0-.8,1.18ZM177,110.6a3.54,3.54,0,0,0,.89,1.59,3.48,3.48,0,0,0,2.5,1.07h0a3.53,3.53,0,0,0,2.48-1,3.44,3.44,0,0,0,1-1.64Z"/><path class="cls-3" d="M196.23,106.33H191v2.05h4.29v2.23H191V113h5.15v2.23H188.8V104.1h7.43Z"/><path class="cls-3" d="M207.59,115.25l-6.27-6.51v6.51h-2.23V104.1h.7l6.16,6.24V104.1h2.23v11.15Z"/><path class="cls-3" d="M217.38,104.11h2.23v11.14h-2.23V110.6h-4.12v4.65H211V104.11h2.23v4.26h4.12Z"/><path class="cls-3" d="M232.85,114.66v.59h-11v-.59l5.38-10.56h.65ZM229.6,113l-2.13-4.55L225.15,113Z"/><path class="cls-3" d="M239.41,104.08a3.35,3.35,0,0,1,3.34,3.36,3,3,0,0,1-2.26,3l2.32,4.77h-2.37l-2.08-4.47v0l-1.11-2.4v6.87H235V104.08Zm.14,4.45a1.1,1.1,0,0,0,1-1.1,1.12,1.12,0,0,0-1.11-1.13h-1Z"/><path class="cls-3" d="M248.54,106.33V113h1.18v2.23h-4.6V113h1.19v-6.7h-1.19V104.1h4.6v2.23Z"/><path class="cls-3" d="M263.43,114.66v.59h-11v-.59l5.38-10.56h.65ZM260.19,113l-2.13-4.55L255.73,113Z"/></g></g></svg>