<?xml version="1.0" encoding="UTF-8"?>
<svg width="78px" height="74px" viewBox="0 0 78 74" version="1.1" xmlns="http://www.w3.org/2000/svg" xmlns:xlink="http://www.w3.org/1999/xlink">
    <!-- Generator: Sketch 43.1 (39012) - http://www.bohemiancoding.com/sketch -->
    <title>logo-horizontal</title>
    <desc>Created with Sketch.</desc>
    <defs></defs>
    <g id="Symbols" stroke="none" stroke-width="1" fill="none" fill-rule="evenodd">
        <g id="logo-short" fill-rule="nonzero">
            <g id="logo-horizontal">
                <path d="M52.625,23.7677966 L27.83125,23.7677966 L27.83125,42.1110169 L52.01875,42.1110169 C55.4540887,42.3357946 58.1257076,45.1975595 58.125,48.6518644 L58.125,48.6518644 C58.1215724,52.2544925 55.2154438,55.17608 51.625,55.1864407 L51.625,55.1864407 C48.0296737,55.1829835 45.1159455,52.2593783 45.1125,48.6518644 L27.83125,48.6518644 C27.8347001,62.3900579 38.9332193,73.5261992 52.625,73.529661 L52.625,73.529661 C59.2023689,73.529661 65.510346,70.9079543 70.1612482,66.2412863 C74.8121504,61.5746183 77.425,55.2452583 77.425,48.6455932 L77.425,48.6455932 C77.4215488,34.9049512 66.3192214,23.7677962 52.625,23.7677966 Z" id="Shape" fill="#00CACD"></path>
                <polygon id="Shape" fill="#FFCF15" points="18.3375 47.5418644 18.3375 42.1110169 36.95625 42.1110169 36.95625 23.7677966 18.3375 23.7677966 18.3375 18.3432203 36.95625 18.3432203 36.95625 0 18.3375 0 0 0 0 18.3432203 0 23.7677966 0 42.1110169 0 47.5418644 0 72.3945763 0 72.3945763 45.1125 72.3945763 45.1125 48.6518644 18.3375 48.6518644"></polygon>
                <rect id="Rectangle-path" fill="#00CACD" transform="translate(54.581250, 9.171610) rotate(180.000000) translate(-54.581250, -9.171610) " x="36.9625" y="7.10542736e-15" width="35.2375" height="18.3432203"></rect>
                <ellipse id="Oval" fill="#001B4B" cx="36.95625" cy="9.16847458" rx="9.1375" ry="9.16847458"></ellipse>
                <ellipse id="Oval" fill="#001B4B" cx="36.95" cy="32.9425424" rx="9.1375" ry="9.16847458"></ellipse>
                <path d="M27.83125,48.6518644 C27.8339065,59.4873756 34.8224512,69.0762577 45.1125,72.3632203 L45.1125,48.6518644 L27.83125,48.6518644 Z" id="Shape" fill="#001B4B"></path>
            </g>
        </g>
    </g>
</svg>