<?xml version="1.0" encoding="UTF-8"?>
<svg width="64px" height="64px" viewBox="0 0 64 64" version="1.1" xmlns="http://www.w3.org/2000/svg" xmlns:xlink="http://www.w3.org/1999/xlink">
    <!-- Generator: Sketch 43.1 (39012) - http://www.bohemiancoding.com/sketch -->
    <title>pattern azul</title>
    <desc>Created with Sketch.</desc>
    <defs></defs>
    <g id="Page-1" stroke="none" stroke-width="1" fill="none" fill-rule="evenodd" stroke-linecap="square">
        <g id="pattern-azul" stroke="#00CACD">
            <path d="M56.5,-0.5 L-8.00193796,64.001938" id="Line-Copy-21"></path>
            <path d="M64.5,-0.5 L-0.00193795538,64.001938" id="Line-Copy-22"></path>
            <path d="M72.5,-0.5 L7.99806204,64.001938" id="Line-Copy-23"></path>
            <path d="M80.5,-0.5 L15.998062,64.001938" id="Line-Copy-24"></path>
            <path d="M88.5,-0.5 L23.998062,64.001938" id="Line-Copy-25"></path>
            <path d="M96.5,-0.5 L31.998062,64.001938" id="Line-Copy-26"></path>
            <path d="M104.5,-0.5 L39.998062,64.001938" id="Line-Copy-27"></path>
            <path d="M112.5,-0.5 L47.998062,64.001938" id="Line-Copy-28"></path>
            <path d="M120.5,-0.5 L55.998062,64.001938" id="Line-Copy-29"></path>
            <path d="M16.5,-0.5 L-48.001938,64.001938" id="Line-Copy-15"></path>
            <path d="M8.5,-0.5 L-56.001938,64.001938" id="Line-Copy-16"></path>
            <path d="M24.5,-0.5 L-40.001938,64.001938" id="Line-Copy-17"></path>
            <path d="M32.5,-0.5 L-32.001938,64.001938" id="Line-Copy-18"></path>
            <path d="M40.5,-0.5 L-24.001938,64.001938" id="Line-Copy-19"></path>
            <path d="M48.5,-0.5 L-16.001938,64.001938" id="Line-Copy-20"></path>
        </g>
    </g>
</svg>