<?xml version="1.0" encoding="UTF-8"?>
<svg width="177px" height="115px" viewBox="0 0 177 115" version="1.1" xmlns="http://www.w3.org/2000/svg" xmlns:xlink="http://www.w3.org/1999/xlink">
    <defs></defs>
    <g id="Page-1" stroke="none" stroke-width="1" fill="none" fill-rule="evenodd">
        <g id="E5/MOBILE-Projeto_docentes" transform="translate(-172.000000, -64.000000)">
            <g id="E5/Ilustras/Projetos" transform="translate(173.000000, 64.000000)">
                <rect id="Rectangle-path" fill="#00CACD" fill-rule="nonzero" x="106.43237" y="21.5012547" width="63.2870003" height="35.5379451"></rect>
                <path d="M174.242371,61.7259769 L174.242371,18.8712221 C174.239155,17.7637351 173.351702,16.8676645 172.258087,16.8676693 L103.887817,16.8676693 C102.79648,16.8709151 101.912573,17.7660377 101.909368,18.8712221 L101.909368,61.7259769 L174.242371,61.7259769 Z" id="Shape" stroke="#001B4B" stroke-width="2"></path>
                <path d="M145.867104,31.4362764 L159.751259,31.4362764 C159.850473,30.1064847 160.14228,28.3748004 160.97101,27.2636855 C166.095133,20.5851759 166.421956,14.2199062 166.421956,13.7707321 C166.421956,6.16536677 160.333842,0 152.823772,0 C145.313702,0 139.225587,6.16536677 139.225587,13.7707321 C139.225587,14.2199062 139.546575,20.5792657 144.670697,27.2636855 C145.493592,28.3748004 145.808743,30.1064847 145.867104,31.4362764 Z" id="Shape" fill="#FFCF15" fill-rule="nonzero"></path>
                <path d="M149.205371,31.3949051 L146.514915,16.2648304" id="Shape" stroke="#001B4B" stroke-width="2" stroke-linejoin="bevel"></path>
                <path d="M144.96834,31.5958514 L160.673367,31.5958514" id="Shape" stroke="#001B4B" stroke-width="2" stroke-linejoin="bevel"></path>
                <path d="M144.96834,35.7802627 L160.673367,35.7802627" id="Shape" stroke="#001B4B" stroke-width="2" stroke-linejoin="bevel"></path>
                <path d="M147.682141,39.964674 L157.953731,39.964674" id="Shape" stroke="#001B4B" stroke-width="2" stroke-linejoin="bevel"></path>
                <path d="M148.820186,35.437472 L148.820186,31.7849774" id="Shape" stroke="#001B4B" stroke-width="2" stroke-linejoin="bevel"></path>
                <path d="M114.398688,92.3821088 L161.350359,92.3821088" id="Shape" stroke="#001B4B" stroke-width="2"></path>
                <path d="M114.398688,97.5357905 L154.708842,97.5357905" id="Shape" stroke="#001B4B" stroke-width="2"></path>
                <polyline id="Shape" stroke="#001B4B" stroke-width="2" points="111.708232 90.922293 107.716318 95.9932321 105.883773 94.2733681"></polyline>
                <path d="M114.398688,104.988534 L161.350359,104.988534" id="Shape" stroke="#001B4B" stroke-width="2"></path>
                <path d="M114.398688,110.136306 L154.708842,110.136306" id="Shape" stroke="#001B4B" stroke-width="2"></path>
                <polyline id="Shape" stroke="#001B4B" stroke-width="2" points="111.708232 103.528719 107.716318 108.599658 105.883773 106.885704"></polyline>
                <polygon id="Shape" stroke="#001B4B" stroke-width="2" points="73.2889838 19.2908453 73.2889838 21.6135482 66.3614968 33.8062608 59.4281736 21.6135482 59.4281736 19.2908453"></polygon>
                <path d="M121.402045,80.1598453 L9.00400519,80.1598453 C4.16919629,80.1598453 0.249809277,84.1289655 0.249809277,89.0251235 L0.249809277,89.0251235 C0.249809277,93.9212814 4.16919629,97.8904016 9.00400519,97.8904016 L12.9959185,97.8904016" id="Shape" stroke="#001B4B" stroke-width="2" stroke-dasharray="4"></path>
                <rect id="Rectangle-path" stroke="#001B4B" stroke-width="2" x="14.7876106" y="89.5984114" width="47.1909521" height="23.8535085" rx="1.44"></rect>
                <path d="M58.4535398,93.9305774 L54.840975,93.9305774" id="Shape" stroke="#001B4B" stroke-width="2"></path>
                <path d="M53.2302029,93.9305774 L49.6234742,93.9305774" id="Shape" stroke="#001B4B" stroke-width="2"></path>
                <path d="M48.0127022,93.9305774 L44.4059735,93.9305774" id="Shape" stroke="#001B4B" stroke-width="2"></path>
                <path d="M42.7952014,93.9305774 L39.1826366,93.9305774" id="Shape" stroke="#001B4B" stroke-width="2"></path>
                <path d="M37.5718645,93.9305774 L33.9651358,93.9305774" id="Shape" stroke="#001B4B" stroke-width="2"></path>
                <path d="M32.3543637,93.9305774 L28.747635,93.9305774" id="Shape" stroke="#001B4B" stroke-width="2"></path>
                <path d="M27.136863,93.9305774 L23.5242981,93.9305774" id="Shape" stroke="#001B4B" stroke-width="2"></path>
                <path d="M21.9135261,93.9305774 L18.3067974,93.9305774" id="Shape" stroke="#001B4B" stroke-width="2"></path>
                <path d="M58.4535398,98.8183007 L54.840975,98.8183007" id="Shape" stroke="#001B4B" stroke-width="2"></path>
                <path d="M53.2302029,98.8183007 L49.6234742,98.8183007" id="Shape" stroke="#001B4B" stroke-width="2"></path>
                <path d="M48.0127022,98.8183007 L44.4059735,98.8183007" id="Shape" stroke="#001B4B" stroke-width="2"></path>
                <path d="M42.7952014,98.8183007 L39.1826366,98.8183007" id="Shape" stroke="#001B4B" stroke-width="2"></path>
                <path d="M37.5718645,98.8183007 L33.9651358,98.8183007" id="Shape" stroke="#001B4B" stroke-width="2"></path>
                <path d="M32.3543637,98.8183007 L28.747635,98.8183007" id="Shape" stroke="#001B4B" stroke-width="2"></path>
                <path d="M27.136863,98.8183007 L23.5242981,98.8183007" id="Shape" stroke="#001B4B" stroke-width="2"></path>
                <path d="M21.9135261,98.8183007 L18.3067974,98.8183007" id="Shape" stroke="#001B4B" stroke-width="2"></path>
                <path d="M58.4535398,103.706024 L54.840975,103.706024" id="Shape" stroke="#001B4B" stroke-width="2"></path>
                <path d="M53.2302029,103.706024 L49.6234742,103.706024" id="Shape" stroke="#001B4B" stroke-width="2"></path>
                <path d="M48.0127022,103.706024 L44.4059735,103.706024" id="Shape" stroke="#001B4B" stroke-width="2"></path>
                <path d="M42.7952014,103.706024 L39.1826366,103.706024" id="Shape" stroke="#001B4B" stroke-width="2"></path>
                <path d="M37.5718645,103.706024 L33.9651358,103.706024" id="Shape" stroke="#001B4B" stroke-width="2"></path>
                <path d="M32.3543637,103.706024 L28.747635,103.706024" id="Shape" stroke="#001B4B" stroke-width="2"></path>
                <path d="M27.136863,103.706024 L23.5242981,103.706024" id="Shape" stroke="#001B4B" stroke-width="2"></path>
                <path d="M21.9135261,103.706024 L18.3067974,103.706024" id="Shape" stroke="#001B4B" stroke-width="2"></path>
                <path d="M58.4535398,108.593747 L54.840975,108.593747" id="Shape" stroke="#001B4B" stroke-width="2"></path>
                <path d="M53.2302029,108.593747 L49.6234742,108.593747" id="Shape" stroke="#001B4B" stroke-width="2"></path>
                <path d="M48.0127022,108.593747 L28.6951099,108.593747" id="Shape" stroke="#001B4B" stroke-width="2"></path>
                <path d="M27.136863,108.593747 L23.5242981,108.593747" id="Shape" stroke="#001B4B" stroke-width="2"></path>
                <path d="M21.9135261,108.593747 L18.3067974,108.593747" id="Shape" stroke="#001B4B" stroke-width="2"></path>
                <path d="M101.897696,61.6786954 L101.897696,67.8607494 C101.985145,69.1642542 102.979515,70.2184828 104.261329,70.366668 L172.386482,70.366668 C173.553708,70.366668 174.254043,69.1491698 174.254043,67.9612225 L174.254043,61.6786954" id="Shape" stroke="#001B4B" stroke-width="2"></path>
                <path d="M130.05119,70.4139495 C129.928631,71.9505977 130.197093,75.3666849 129.87027,77.0392674 C129.572627,78.5640952 129.362527,78.6172869 128.562977,79.066461 C128.113595,79.3146888 127.349062,79.6574795 126.707087,79.9470786 L126.707087,79.9470786" id="Shape" stroke="#001B4B" stroke-width="2"></path>
                <path d="M149.427144,79.958899 C148.785169,79.6752101 148.008964,79.3205989 147.553746,79.066461 C146.754196,78.6172869 146.59662,78.5640952 146.298978,77.0392674 C145.972154,75.3666849 146.240616,72.0333403 146.118058,70.4966921" id="Shape" stroke="#001B4B" stroke-width="2"></path>
                <path d="M124.693622,79.8229647 L151.458117,79.8229647" id="Shape" stroke="#001B4B" stroke-width="2"></path>
                <path d="M75.710978,95.0594228 L72.4719255,91.7792699" id="Shape" stroke="#001B4B" stroke-width="2" fill="#FFCF15" fill-rule="nonzero"></path>
                <path d="M74.6429661,100.154003 L70.2191791,101.35968" id="Shape" stroke="#001B4B" stroke-width="2" fill="#FFCF15" fill-rule="nonzero"></path>
                <path d="M78.4656317,103.641012 L77.2808972,108.126843" id="Shape" stroke="#001B4B" stroke-width="2" fill="#FFCF15" fill-rule="nonzero"></path>
                <path d="M83.3621453,102.033442 L86.6011977,105.313595" id="Shape" stroke="#001B4B" stroke-width="2" fill="#FFCF15" fill-rule="nonzero"></path>
                <path d="M84.4301572,96.9329516 L88.8597803,95.7331839" id="Shape" stroke="#001B4B" stroke-width="2" fill="#FFCF15" fill-rule="nonzero"></path>
                <path d="M80.6074916,93.4518524 L81.7922261,88.9660216" id="Shape" stroke="#001B4B" stroke-width="2" fill="#FFCF15" fill-rule="nonzero"></path>
                <polygon id="Shape" stroke="#001B4B" stroke-width="2" fill="#FFCF15" fill-rule="nonzero" points="82.8952548 101.838406 87.4474367 103.120916 92.0054547 104.403426 88.6321712 107.754501 85.2588877 111.111486 84.0741532 106.477901"></polygon>
                <path d="M88.5738099,107.695399 L92.4723451,111.714325" id="Shape" stroke="#001B4B" stroke-width="2"></path>
                <polyline id="Shape" stroke="#001B4B" stroke-width="2" points="12.3893805 60.3796837 17.6068813 42.1290311 22.8243821 23.8783784 28.0418828 42.1290311 33.2593836 60.3796837"></polyline>
                <ellipse id="Oval" stroke="#001B4B" stroke-width="2" cx="22.4494583" cy="19.3337326" rx="4.63972383" ry="4.69859743"></ellipse>
                <path d="M22.4557522,14.1192179 L22.4557522,6.93243243" id="Shape" stroke="#001B4B" stroke-width="2"></path>
                <path d="M11.6150442,40.8243243 C18.4807342,44.097524 26.4305795,44.097524 33.2962695,40.8243243" id="Shape" stroke="#001B4B" stroke-width="2"></path>
                <path d="M39.4911504,8.47297297 L39.4911504,18.3252521" id="Shape" stroke="#001B4B" stroke-width="2"></path>
                <path d="M44.5681263,13.8648649 L34.8451327,13.8648649" id="Shape" stroke="#001B4B" stroke-width="2"></path>
            </g>
        </g>
    </g>
</svg>