<?xml version="1.0" encoding="UTF-8"?>
<svg width="16px" height="16px" viewBox="0 0 16 16" version="1.1" xmlns="http://www.w3.org/2000/svg" xmlns:xlink="http://www.w3.org/1999/xlink">
    <defs></defs>
    <g id="Page-1" stroke="none" stroke-width="1" fill="none" fill-rule="evenodd">
        <g id="E5/icons/User" fill="#001B4B">
            <path d="M12.532,11.924 C11.997,10.757 11.034,9.832 9.835,9.358 C10.539,8.809 11,7.962 11,7 C11,5.344 9.657,4 8,4 C6.343,4 5,5.344 5,7 C5,7.962 5.461,8.809 6.165,9.358 C4.966,9.832 4.003,10.757 3.468,11.924 C2.555,10.871 2,9.502 2,8 C2,4.687 4.686,2 8,2 C11.313,2 14,4.687 14,8 C14,9.502 13.444,10.871 12.532,11.924 M8,8 C7.447,8 7,7.553 7,7 C7,6.447 7.447,6 8,6 C8.553,6 9,6.447 9,7 C9,7.553 8.553,8 8,8 M5.104,13.254 C5.437,11.961 6.601,11 8,11 C9.398,11 10.562,11.961 10.895,13.254 C10.036,13.729 9.051,14 8,14 C6.949,14 5.964,13.729 5.104,13.254 M8,0 C3.582,0 0,3.582 0,8 C0,12.418 3.582,16 8,16 C12.418,16 16,12.418 16,8 C16,3.582 12.418,0 8,0" id="Fill-1"></path>
        </g>
    </g>
</svg>